<?xml version="1.0" encoding="UTF-8"?>
<svg id="Layer_1" data-name="Layer 1" xmlns="http://www.w3.org/2000/svg" viewBox="0 0 500 500">
  <path d="M397.13,174.74c-1.26-2.5-3.57-4.32-6.3-4.92-18.84-4.14-32.94-20.92-32.94-41v-.04c0-2.86-1.28-5.57-3.5-7.39-5.44-4.47-11.18-8.59-17.18-12.35-2.44-1.52-5.66-.58-6.91,2.01l-23.43,48.66c-1.04,2.16-.34,4.74,1.64,6.09,25.97,17.81,43.29,47.32,44.34,80.93,1.84,58.73-45.43,106.5-104.17,105.26-54.08-1.14-97.8-44.35-99.76-98.22-2.16-59.37,47.08-108.28,106.44-105.71,8.27.36,16.29,1.7,23.94,3.92,2.27.66,4.68-.41,5.71-2.54l23.59-49c1.24-2.57,0-5.67-2.69-6.64-8.55-3.09-17.42-5.49-26.56-7.13,0,0-.01,0-.01,0-7.57,7.39-17.92,11.95-29.33,11.95-9.64,0-18.51-3.25-25.6-8.71-2.63-2.02-5.99-2.87-9.23-2.17-26.01,5.6-49.74,17.35-69.58,33.65-2.21,1.81-3.48,4.52-3.48,7.38v.04c0,19.83-13.75,36.44-32.23,40.84-3.24.77-5.96,2.98-7.44,5.96-10.92,22.02-17.07,46.83-17.07,73.07,0,.33,0,.66,0,.99.02,3.4,1.58,6.59,4.22,8.73,9.46,7.7,15.51,19.43,15.51,32.58,0,6.74-1.59,13.12-4.42,18.76-1.27,2.53-1.31,5.51-.12,8.08,11.08,23.91,27.73,44.71,48.28,60.74,2.27,1.77,5.23,2.36,8.03,1.68,3.19-.78,6.53-1.19,9.96-1.19,16.94,0,31.53,10.03,38.17,24.47,1.2,2.6,3.5,4.53,6.29,5.2,12.42,2.99,25.38,4.58,38.72,4.58s26.3-1.59,38.72-4.58c2.78-.67,5.09-2.6,6.29-5.2,6.64-14.44,21.23-24.47,38.17-24.47,3.43,0,6.77.41,9.96,1.19,2.8.68,5.76.09,8.03-1.68,20.55-16.03,37.2-36.83,48.28-60.74,1.19-2.57,1.15-5.55-.12-8.08-2.83-5.65-4.42-12.02-4.42-18.76,0-13.41,6.29-25.34,16.07-33.03,2.24-1.76,3.61-4.41,3.64-7.26,0-.67.01-1.34.01-2.02,0-26.59-6.31-51.72-17.51-73.95Z"/>
</svg>