<?xml version="1.0" encoding="UTF-8"?>
<svg id="Layer_1" data-name="Layer 1" xmlns="http://www.w3.org/2000/svg" xmlns:xlink="http://www.w3.org/1999/xlink" viewBox="0 0 3392.47 2160">
  <defs>
    <style>
      .cls-1 {
        fill: none;
      }

      .cls-2, .cls-3 {
        fill: #2c4568;
      }

      .cls-4 {
        fill: #212f45;
      }

      .cls-3 {
        stroke: #ffb36d;
        stroke-miterlimit: 10;
      }

      .cls-5 {
        fill: url(#New_Pattern);
      }
    </style>
    <pattern id="New_Pattern" data-name="New Pattern" x="0" y="0" width="1014.95" height="992.59" patternTransform="translate(-4692.78 -11885.84) rotate(-18.66) scale(.55)" patternUnits="userSpaceOnUse" viewBox="0 0 1014.95 992.59">
      <g>
        <rect class="cls-1" width="1014.95" height="992.59"/>
        <rect class="cls-4" width="1014.95" height="992.59"/>
        <g>
          <g>
            <g>
              <path class="cls-2" d="M400.38,60.32c-1.15.11-2.32.25-3.47.4l3.22,23.94c.86-.13,1.72-.24,2.59-.33l-2.33-24.01Z"/>
              <path class="cls-2" d="M483.41,157.11c.01-1.38-.02-2.75-.09-4.12l12.17-.6c-.05-1.02-.12-2.05-.21-3.09v-.15s-12.14,1.07-12.14,1.07c-.13-1.48-.3-2.95-.52-4.41l22.92-3.37c-.17-1.15-.36-2.3-.57-3.43l-22.79,4.19c-.26-1.4-.56-2.79-.9-4.17l11.84-2.89c-.24-.99-.51-2-.79-2.99l-11.74,3.32c-.41-1.42-.86-2.83-1.35-4.21l21.89-7.68c-.38-1.09-.79-2.19-1.21-3.26l-21.61,8.46c-.52-1.32-1.09-2.63-1.69-3.92l11.13-5.12c-.43-.93-.88-1.86-1.34-2.78l-10.95,5.53c-.67-1.31-1.38-2.6-2.14-3.88l20.1-11.73c-.58-.99-1.19-1.99-1.81-2.97l-19.68,12.45c-.77-1.19-1.57-2.36-2.4-3.51l10.03-7.19c-.59-.83-1.21-1.66-1.84-2.47l-9.78,7.57c-.91-1.16-1.85-2.29-2.84-3.4l17.61-15.38c-.76-.87-1.54-1.73-2.33-2.58l-17.07,16.02c-.23-.25-.47-.49-.7-.73-.76-.77-1.53-1.52-2.32-2.26l8.57-9.04c-.74-.7-1.51-1.4-2.28-2.08l-8.25,9.35c-1.12-.97-2.26-1.9-3.42-2.8l14.48-18.5c-.91-.71-1.85-1.42-2.79-2.1l-13.8,19.04c-1.15-.82-2.33-1.61-3.53-2.36l6.78-10.58c-.86-.55-1.75-1.1-2.63-1.62l-6.4,10.84c-1.28-.74-2.57-1.43-3.89-2.09l10.76-21.03c-1.03-.53-2.09-1.05-3.14-1.53l-10,21.43c-1.29-.58-2.59-1.12-3.91-1.63l4.71-11.81c-.95-.38-1.93-.75-2.9-1.09l-4.28,12c-1.39-.48-2.79-.91-4.21-1.3l6.6-22.85c-1.11-.32-2.25-.63-3.37-.91l-5.78,23.1c-1.37-.32-2.75-.61-4.14-.85l2.4-12.67c-1.01-.19-2.03-.37-3.04-.52l-1.95,12.78c-1.45-.2-2.9-.36-4.37-.48l2.17-23.86c-1.15-.1-2.32-.19-3.47-.25l-1.31,23.95c-.83-.04-1.65-.06-2.48-.07-.24,0-.47,0-.71,0-.34,0-.68,0-1.02.01l-.05-13.06c-1.02,0-2.06.03-3.08.07l.51,13.07c-1.47.07-2.93.19-4.38.35l-2.59.33c-1.39.2-2.78.45-4.14.73l-2.51-12.97c-1,.19-2.02.41-3.02.64l2.99,12.91c-1.42.35-2.82.73-4.21,1.16l-6.91-23.29c-1.11.33-2.23.68-3.33,1.05l7.77,23.06c-1.33.46-2.63.96-3.92,1.5l-5-12.43c-.95.38-1.91.79-2.85,1.21l5.47,12.27c-1.32.61-2.62,1.25-3.9,1.94l-11.29-21.7c-1.02.53-2.05,1.09-3.06,1.66l12.09,21.3c-1.21.7-2.39,1.44-3.56,2.21l-7.36-11.38c-.86.55-1.72,1.13-2.56,1.72l7.78,11.13c-1.18.84-2.34,1.72-3.46,2.63l-15.28-19.28c-.9.71-1.8,1.46-2.68,2.21l15.98,18.74c-1.05.91-2.08,1.86-3.07,2.83l-9.47-9.88c-.74.71-1.48,1.44-2.19,2.17l9.83,9.55c-1,1.05-1.97,2.13-2.91,3.23l-18.72-16.14c-.76.88-1.5,1.78-2.23,2.68l19.31,15.47c-.86,1.09-1.69,2.21-2.49,3.34l-11.24-7.97c-.59.84-1.18,1.69-1.74,2.55l11.52,7.58c-.79,1.21-1.54,2.45-2.25,3.72l-21.51-12.36c-.57,1-1.14,2.03-1.69,3.06l21.95,11.58c-.64,1.23-1.24,2.48-1.81,3.75l-12.6-5.74c-.43.94-.84,1.89-1.23,2.83l12.81,5.28c-.54,1.33-1.05,2.69-1.51,4.06l-23.52-8.05c-.37,1.1-.73,2.21-1.07,3.32l23.8,7.2c-.4,1.33-.76,2.67-1.08,4.02l-13.51-3.25c-.24,1-.47,2.02-.67,3.02l13.63,2.76c-.28,1.41-.53,2.83-.72,4.26l-24.64-3.43c-.16,1.15-.3,2.31-.42,3.45l24.76,2.55c-.14,1.37-.24,2.76-.3,4.16l-13.9-.62c-.04.99-.07,2-.08,2.99v.09s13.91.12,13.91.12c0,0,0,0,0,.01-.01,1.45.02,2.89.09,4.33l-24.86,1.24c.06,1.15.14,2.32.23,3.46l24.79-2.12c.12,1.39.27,2.77.47,4.15l-13.74,1.99c.15,1.01.31,2.04.5,3.05l13.65-2.48c.25,1.42.55,2.84.88,4.23l-24.14,5.9c.27,1.12.57,2.26.89,3.38l23.9-6.78c.37,1.34.79,2.67,1.24,3.99l-13.07,4.54c.34.97.7,1.95,1.07,2.9l12.89-5.01c.52,1.35,1.07,2.68,1.67,3.99l-22.51,10.37c.48,1.05.99,2.11,1.51,3.14l22.11-11.18c.62,1.25,1.28,2.48,1.98,3.69l-11.92,6.91c.51.88,1.05,1.77,1.6,2.64l11.64-7.33c.76,1.22,1.56,2.42,2.4,3.6l-20.09,14.4c.67.94,1.37,1.88,2.08,2.8l19.54-15.11c.84,1.11,1.73,2.19,2.64,3.25l-10.33,8.99c.67.77,1.37,1.54,2.06,2.29l9.99-9.34c.53.58,1.07,1.15,1.62,1.71.46.47.94.94,1.41,1.4l-16.95,17.85c.84.8,1.7,1.59,2.57,2.35l15.29-17.32h0s3.1-3.51,3.1-3.51c-1.07-.97-2.12-1.97-3.14-3.01-13-13.25-20.06-30.77-19.88-49.33.37-38.09,31.47-68.82,69.47-68.82.23,0,.45,0,.68,0,18.56.18,35.94,7.57,48.94,20.82,13,13.25,20.06,30.77,19.88,49.33-.18,18.56-7.57,35.94-20.82,48.94-.36.35-.71.69-1.08,1.03l2.19,2.28s0,0,0,0l16.23,16.94c.83-.8,1.66-1.62,2.47-2.45l-16.81-16.34c1-1.01,1.97-2.05,2.91-3.12l9.39,8.13c.67-.77,1.33-1.57,1.98-2.37l-9.67-7.77c.93-1.14,1.83-2.3,2.69-3.49l19.03,13.53c.67-.94,1.33-1.91,1.97-2.88l-19.5-12.82c.79-1.18,1.55-2.39,2.27-3.62l10.67,6.16c.51-.89,1.02-1.8,1.5-2.7l-10.87-5.76c.7-1.29,1.36-2.61,1.98-3.95l21.17,9.63c.48-1.06.95-2.13,1.39-3.2l-21.5-8.86c.55-1.31,1.06-2.64,1.53-3.99l11.57,4c.34-.97.66-1.96.96-2.94l-11.7-3.58c.43-1.4.83-2.82,1.18-4.26l22.56,5.41c.27-1.12.52-2.27.75-3.41l-22.73-4.58c.28-1.39.53-2.8.73-4.22l12.08,1.71c.14-1.02.27-2.05.38-3.06l-12.13-1.28c.16-1.46.27-2.93.33-4.41l23.14,1.04c.05-1.15.08-2.32.09-3.47v-.16s-23.16-.22-23.16-.22Z"/>
            </g>
            <path class="cls-2" d="M410.78,228c-13.98,0-27.56-3.97-39.28-11.48l2.59-4.03c10.94,7.02,23.63,10.72,36.69,10.72s26.22-3.85,37.31-11.12l2.63,4.01c-11.87,7.79-25.68,11.91-39.94,11.91Z"/>
            <path class="cls-2" d="M411.35,239.59c-16.35,0-32.2-4.71-45.82-13.61l2.18-3.34c12.98,8.48,28.07,12.96,43.64,12.96s31.22-4.65,44.36-13.44l2.22,3.32c-13.8,9.23-29.91,14.11-46.58,14.11Z"/>
            <path class="cls-2" d="M410.33,249.96c-18.05,0-35.61-5.07-50.8-14.66l2.56-4.05c14.42,9.11,31.1,13.92,48.24,13.92,18.35,0,36.01-5.46,51.08-15.79l2.71,3.95c-15.87,10.88-34.48,16.63-53.79,16.63Z"/>
            <path class="cls-3" d="M448.69,213.17"/>
          </g>
          <g>
            <g>
              <path class="cls-2" d="M908.76,60.32c-1.15.11-2.32.25-3.47.4l3.22,23.94c.86-.13,1.72-.24,2.59-.33l-2.33-24.01Z"/>
              <path class="cls-2" d="M991.79,157.11c.01-1.38-.02-2.75-.09-4.12l12.17-.6c-.05-1.02-.12-2.05-.21-3.09v-.15s-12.14,1.07-12.14,1.07c-.13-1.48-.3-2.95-.52-4.41l22.92-3.37c-.17-1.15-.36-2.3-.57-3.43l-22.79,4.19c-.26-1.4-.56-2.79-.9-4.17l11.84-2.89c-.24-.99-.51-2-.79-2.99l-11.74,3.32c-.41-1.42-.86-2.83-1.35-4.21l21.89-7.68c-.38-1.09-.79-2.19-1.21-3.26l-21.61,8.46c-.52-1.32-1.09-2.63-1.69-3.92l11.13-5.12c-.43-.93-.88-1.86-1.34-2.78l-10.95,5.53c-.67-1.31-1.38-2.6-2.14-3.88l20.1-11.73c-.58-.99-1.19-1.99-1.81-2.97l-19.68,12.45c-.77-1.19-1.57-2.36-2.4-3.51l10.03-7.19c-.59-.83-1.21-1.66-1.84-2.47l-9.78,7.57c-.91-1.16-1.85-2.29-2.84-3.4l17.61-15.38c-.76-.87-1.54-1.73-2.33-2.58l-17.07,16.02c-.23-.25-.47-.49-.7-.73-.76-.77-1.53-1.52-2.32-2.26l8.57-9.04c-.74-.7-1.51-1.4-2.28-2.08l-8.25,9.35c-1.12-.97-2.26-1.9-3.42-2.8l14.48-18.5c-.91-.71-1.85-1.42-2.79-2.1l-13.8,19.04c-1.15-.82-2.33-1.61-3.53-2.36l6.78-10.58c-.86-.55-1.75-1.1-2.63-1.62l-6.4,10.84c-1.28-.74-2.57-1.43-3.89-2.09l10.76-21.03c-1.03-.53-2.09-1.05-3.14-1.53l-10,21.43c-1.29-.58-2.59-1.12-3.91-1.63l4.71-11.81c-.95-.38-1.93-.75-2.9-1.09l-4.28,12c-1.39-.48-2.79-.91-4.21-1.3l6.6-22.85c-1.11-.32-2.25-.63-3.37-.91l-5.78,23.1c-1.37-.32-2.75-.61-4.14-.85l2.4-12.67c-1.01-.19-2.03-.37-3.04-.52l-1.95,12.78c-1.45-.2-2.9-.36-4.37-.48l2.17-23.86c-1.15-.1-2.32-.19-3.47-.25l-1.31,23.95c-.83-.04-1.65-.06-2.48-.07-.24,0-.47,0-.71,0-.34,0-.68,0-1.02.01l-.05-13.06c-1.02,0-2.06.03-3.08.07l.51,13.07c-1.47.07-2.93.19-4.38.35l-2.59.33c-1.39.2-2.78.45-4.14.73l-2.51-12.97c-1,.19-2.02.41-3.02.64l2.99,12.91c-1.42.35-2.82.73-4.21,1.16l-6.91-23.29c-1.11.33-2.23.68-3.33,1.05l7.77,23.06c-1.33.46-2.63.96-3.92,1.5l-5-12.43c-.95.38-1.91.79-2.85,1.21l5.47,12.27c-1.32.61-2.62,1.25-3.9,1.94l-11.29-21.7c-1.02.53-2.05,1.09-3.06,1.66l12.09,21.3c-1.21.7-2.39,1.44-3.56,2.21l-7.36-11.38c-.86.55-1.72,1.13-2.56,1.72l7.78,11.13c-1.18.84-2.34,1.72-3.46,2.63l-15.28-19.28c-.9.71-1.8,1.46-2.68,2.21l15.98,18.74c-1.05.91-2.08,1.86-3.07,2.83l-9.47-9.88c-.74.71-1.48,1.44-2.19,2.17l9.83,9.55c-1,1.05-1.97,2.13-2.91,3.23l-18.72-16.14c-.76.88-1.5,1.78-2.23,2.68l19.31,15.47c-.86,1.09-1.69,2.21-2.49,3.34l-11.24-7.97c-.59.84-1.18,1.69-1.74,2.55l11.52,7.58c-.79,1.21-1.54,2.45-2.25,3.72l-21.51-12.36c-.57,1-1.14,2.03-1.69,3.06l21.95,11.58c-.64,1.23-1.24,2.48-1.81,3.75l-12.6-5.74c-.43.94-.84,1.89-1.23,2.83l12.81,5.28c-.54,1.33-1.05,2.69-1.51,4.06l-23.52-8.05c-.37,1.1-.73,2.21-1.07,3.32l23.8,7.2c-.4,1.33-.76,2.67-1.08,4.02l-13.51-3.25c-.24,1-.47,2.02-.67,3.02l13.63,2.76c-.28,1.41-.53,2.83-.72,4.26l-24.64-3.43c-.16,1.15-.3,2.31-.42,3.45l24.76,2.55c-.14,1.37-.24,2.76-.3,4.16l-13.9-.62c-.04.99-.07,2-.08,2.99v.09s13.91.12,13.91.12c0,0,0,0,0,.01-.01,1.45.02,2.89.09,4.33l-24.86,1.24c.06,1.15.14,2.32.23,3.46l24.79-2.12c.12,1.39.27,2.77.47,4.15l-13.74,1.99c.15,1.01.31,2.04.5,3.05l13.65-2.48c.25,1.42.55,2.84.88,4.23l-24.14,5.9c.27,1.12.57,2.26.89,3.38l23.9-6.78c.37,1.34.79,2.67,1.24,3.99l-13.07,4.54c.34.97.7,1.95,1.07,2.9l12.89-5.01c.52,1.35,1.07,2.68,1.67,3.99l-22.51,10.37c.48,1.05.99,2.11,1.51,3.14l22.11-11.18c.62,1.25,1.28,2.48,1.98,3.69l-11.92,6.91c.51.88,1.05,1.77,1.6,2.64l11.64-7.33c.76,1.22,1.56,2.42,2.4,3.6l-20.09,14.4c.67.94,1.37,1.88,2.08,2.8l19.54-15.11c.84,1.11,1.73,2.19,2.64,3.25l-10.33,8.99c.67.77,1.37,1.54,2.06,2.29l9.99-9.34c.53.58,1.07,1.15,1.62,1.71.46.47.94.94,1.41,1.4l-16.95,17.85c.84.8,1.7,1.59,2.57,2.35l15.29-17.32h0s3.1-3.51,3.1-3.51c-1.07-.97-2.12-1.97-3.14-3.01-13-13.25-20.06-30.77-19.88-49.33.37-38.09,31.47-68.82,69.47-68.82.23,0,.45,0,.68,0,18.56.18,35.94,7.57,48.94,20.82,13,13.25,20.06,30.77,19.88,49.33-.18,18.56-7.57,35.94-20.82,48.94-.36.35-.71.69-1.08,1.03l2.19,2.28s0,0,0,0l16.23,16.94c.83-.8,1.66-1.62,2.47-2.45l-16.81-16.34c1-1.01,1.97-2.05,2.91-3.12l9.39,8.13c.67-.77,1.33-1.57,1.98-2.37l-9.67-7.77c.93-1.14,1.83-2.3,2.69-3.49l19.03,13.53c.67-.94,1.33-1.91,1.97-2.88l-19.5-12.82c.79-1.18,1.55-2.39,2.27-3.62l10.67,6.16c.51-.89,1.02-1.8,1.5-2.7l-10.87-5.76c.7-1.29,1.36-2.61,1.98-3.95l21.17,9.63c.48-1.06.95-2.13,1.39-3.2l-21.5-8.86c.55-1.31,1.06-2.64,1.53-3.99l11.57,4c.34-.97.66-1.96.96-2.94l-11.7-3.58c.43-1.4.83-2.82,1.18-4.26l22.56,5.41c.27-1.12.52-2.27.75-3.41l-22.73-4.58c.28-1.39.53-2.8.73-4.22l12.08,1.71c.14-1.02.27-2.05.38-3.06l-12.13-1.28c.16-1.46.27-2.93.33-4.41l23.14,1.04c.05-1.15.08-2.32.09-3.47v-.16s-23.16-.22-23.16-.22Z"/>
            </g>
            <path class="cls-2" d="M919.15,228c-13.98,0-27.56-3.97-39.28-11.48l2.59-4.03c10.94,7.02,23.63,10.72,36.69,10.72s26.22-3.85,37.31-11.12l2.63,4.01c-11.87,7.79-25.68,11.91-39.94,11.91Z"/>
            <path class="cls-2" d="M919.73,239.59c-16.35,0-32.2-4.71-45.82-13.61l2.18-3.34c12.98,8.48,28.07,12.96,43.64,12.96s31.22-4.65,44.36-13.44l2.22,3.32c-13.8,9.23-29.91,14.11-46.58,14.11Z"/>
            <path class="cls-2" d="M918.71,249.96c-18.05,0-35.61-5.07-50.8-14.66l2.56-4.05c14.42,9.11,31.1,13.92,48.24,13.92,18.35,0,36.01-5.46,51.08-15.79l2.71,3.95c-15.87,10.88-34.48,16.63-53.79,16.63Z"/>
            <path class="cls-3" d="M957.07,213.17"/>
          </g>
          <path class="cls-2" d="M241.3,111.22c-.73-1.45-2.07-2.51-3.66-2.86-10.95-2.41-19.15-12.17-19.15-23.84v-.03c0-1.66-.75-3.24-2.03-4.3-3.17-2.6-6.5-5-9.99-7.18-1.42-.89-3.29-.34-4.02,1.17l-13.62,28.3c-.6,1.25-.2,2.76.95,3.54,15.1,10.36,25.17,27.52,25.78,47.06,1.07,34.15-26.42,61.93-60.58,61.21-31.45-.66-56.87-25.79-58.01-57.12-1.26-34.53,27.38-62.97,61.9-61.47,4.81.21,9.47.99,13.92,2.28,1.32.38,2.72-.24,3.32-1.48l13.72-28.5c.72-1.5,0-3.3-1.56-3.86-4.97-1.8-10.13-3.19-15.45-4.15,0,0,0,0,0,0-4.4,4.3-10.42,6.95-17.06,6.95-5.6,0-10.76-1.89-14.88-5.06-1.53-1.18-3.48-1.67-5.37-1.26-15.13,3.26-28.92,10.09-40.46,19.57-1.28,1.05-2.03,2.63-2.02,4.29v.03c0,11.53-7.99,21.19-18.74,23.75-1.88.45-3.47,1.73-4.33,3.47-6.35,12.8-9.92,27.23-9.92,42.49,0,.19,0,.39,0,.58.01,1.98.92,3.83,2.45,5.08,5.5,4.48,9.02,11.3,9.02,18.95,0,3.92-.93,7.63-2.57,10.91-.74,1.47-.76,3.21-.07,4.7,6.44,13.9,16.13,26,28.08,35.32,1.32,1.03,3.04,1.37,4.67.98,1.86-.45,3.8-.69,5.79-.69,9.85,0,18.33,5.83,22.19,14.23.7,1.51,2.04,2.64,3.66,3.03,7.22,1.74,14.76,2.66,22.52,2.66s15.3-.92,22.52-2.66c1.62-.39,2.96-1.51,3.66-3.03,3.86-8.4,12.35-14.23,22.19-14.23,2,0,3.94.24,5.79.69,1.63.4,3.35.05,4.67-.98,11.95-9.32,21.63-21.42,28.08-35.32.69-1.5.67-3.23-.07-4.7-1.64-3.28-2.57-6.99-2.57-10.91,0-7.8,3.66-14.74,9.35-19.21,1.3-1.02,2.1-2.56,2.12-4.22,0-.39,0-.78,0-1.17,0-15.47-3.67-30.07-10.18-43Z"/>
          <path class="cls-2" d="M749.68,111.22c-.73-1.45-2.07-2.51-3.66-2.86-10.95-2.41-19.15-12.17-19.15-23.84v-.03c0-1.66-.75-3.24-2.03-4.3-3.17-2.6-6.5-5-9.99-7.18-1.42-.89-3.29-.34-4.02,1.17l-13.62,28.3c-.6,1.25-.2,2.76.95,3.54,15.1,10.36,25.17,27.52,25.78,47.06,1.07,34.15-26.42,61.93-60.58,61.21-31.45-.66-56.87-25.79-58.01-57.12-1.26-34.53,27.38-62.97,61.9-61.47,4.81.21,9.47.99,13.92,2.28,1.32.38,2.72-.24,3.32-1.48l13.72-28.5c.72-1.5,0-3.3-1.56-3.86-4.97-1.8-10.13-3.19-15.45-4.15,0,0,0,0,0,0-4.4,4.3-10.42,6.95-17.06,6.95-5.6,0-10.76-1.89-14.88-5.06-1.53-1.18-3.48-1.67-5.37-1.26-15.13,3.26-28.92,10.09-40.46,19.57-1.28,1.05-2.03,2.63-2.02,4.29v.03c0,11.53-7.99,21.19-18.74,23.75-1.88.45-3.47,1.73-4.33,3.47-6.35,12.8-9.92,27.23-9.92,42.49,0,.19,0,.39,0,.58.01,1.98.92,3.83,2.45,5.08,5.5,4.48,9.02,11.3,9.02,18.95,0,3.92-.93,7.63-2.57,10.91-.74,1.47-.76,3.21-.07,4.7,6.44,13.9,16.13,26,28.08,35.32,1.32,1.03,3.04,1.37,4.67.98,1.86-.45,3.8-.69,5.79-.69,9.85,0,18.33,5.83,22.19,14.23.7,1.51,2.04,2.64,3.66,3.03,7.22,1.74,14.76,2.66,22.52,2.66s15.3-.92,22.52-2.66c1.62-.39,2.96-1.51,3.66-3.03,3.86-8.4,12.35-14.23,22.19-14.23,2,0,3.94.24,5.79.69,1.63.4,3.35.05,4.67-.98,11.95-9.32,21.63-21.42,28.08-35.32.69-1.5.67-3.23-.07-4.7-1.64-3.28-2.57-6.99-2.57-10.91,0-7.8,3.66-14.74,9.35-19.21,1.3-1.02,2.1-2.56,2.12-4.22,0-.39,0-.78,0-1.17,0-15.47-3.67-30.07-10.18-43Z"/>
        </g>
        <g>
          <g>
            <g>
              <path class="cls-2" d="M674.57,307.86c1.15.11,2.32.25,3.47.4l-3.22,23.94c-.86-.13-1.72-.24-2.59-.33l2.33-24.01Z"/>
              <path class="cls-2" d="M591.54,404.65c-.01-1.38.02-2.75.09-4.12l-12.17-.6c.05-1.02.12-2.05.21-3.09v-.15s12.14,1.07,12.14,1.07c.13-1.48.3-2.95.52-4.41l-22.92-3.37c.17-1.15.36-2.3.57-3.43l22.79,4.19c.26-1.4.56-2.79.9-4.17l-11.84-2.89c.24-.99.51-2,.79-2.99l11.74,3.32c.41-1.42.86-2.83,1.35-4.21l-21.89-7.68c.38-1.09.79-2.19,1.21-3.26l21.61,8.46c.52-1.32,1.09-2.63,1.69-3.92l-11.13-5.12c.43-.93.88-1.86,1.34-2.78l10.95,5.53c.67-1.31,1.38-2.6,2.14-3.88l-20.1-11.73c.58-.99,1.19-1.99,1.81-2.97l19.68,12.45c.77-1.19,1.57-2.36,2.4-3.51l-10.03-7.19c.59-.83,1.21-1.66,1.84-2.47l9.78,7.57c.91-1.16,1.85-2.29,2.84-3.4l-17.61-15.38c.76-.87,1.54-1.73,2.33-2.58l17.07,16.02c.23-.25.47-.49.7-.73.76-.77,1.53-1.52,2.32-2.26l-8.57-9.04c.74-.7,1.51-1.4,2.28-2.08l8.25,9.35c1.12-.97,2.26-1.9,3.42-2.8l-14.48-18.5c.91-.71,1.85-1.42,2.79-2.1l13.8,19.04c1.15-.82,2.33-1.61,3.53-2.36l-6.78-10.58c.86-.55,1.75-1.1,2.63-1.62l6.4,10.84c1.28-.74,2.57-1.43,3.89-2.09l-10.76-21.03c1.03-.53,2.09-1.05,3.14-1.53l10,21.43c1.29-.58,2.59-1.12,3.91-1.63l-4.71-11.81c.95-.38,1.93-.75,2.9-1.09l4.28,12c1.39-.48,2.79-.91,4.21-1.3l-6.6-22.85c1.11-.32,2.25-.63,3.37-.91l5.78,23.1c1.37-.32,2.75-.61,4.14-.85l-2.4-12.67c1.01-.19,2.03-.37,3.04-.52l1.95,12.78c1.45-.2,2.9-.36,4.37-.48l-2.17-23.86c1.15-.1,2.32-.19,3.47-.25l1.31,23.95c.83-.04,1.65-.06,2.48-.07.24,0,.47,0,.71,0,.34,0,.68,0,1.02.01l.05-13.06c1.02,0,2.06.03,3.08.07l-.51,13.07c1.47.07,2.93.19,4.38.35l2.59.33c1.39.2,2.78.45,4.14.73l2.51-12.97c1,.19,2.02.41,3.02.64l-2.99,12.91c1.42.35,2.82.73,4.21,1.16l6.91-23.29c1.11.33,2.23.68,3.33,1.05l-7.77,23.06c1.33.46,2.63.96,3.92,1.5l5-12.43c.95.38,1.91.79,2.85,1.21l-5.47,12.27c1.32.61,2.62,1.25,3.9,1.94l11.29-21.7c1.02.53,2.05,1.09,3.06,1.66l-12.09,21.3c1.21.7,2.39,1.44,3.56,2.21l7.36-11.38c.86.55,1.72,1.13,2.56,1.72l-7.78,11.13c1.18.84,2.34,1.72,3.46,2.63l15.28-19.28c.9.71,1.8,1.46,2.68,2.21l-15.98,18.74c1.05.91,2.08,1.86,3.07,2.83l9.47-9.88c.74.71,1.48,1.44,2.19,2.17l-9.83,9.55c1,1.05,1.97,2.13,2.91,3.23l18.72-16.14c.76.88,1.5,1.78,2.23,2.68l-19.31,15.47c.86,1.09,1.69,2.21,2.49,3.34l11.24-7.97c.59.84,1.18,1.69,1.74,2.55l-11.52,7.58c.79,1.21,1.54,2.45,2.25,3.72l21.51-12.36c.57,1,1.14,2.03,1.69,3.06l-21.95,11.58c.64,1.23,1.24,2.48,1.81,3.75l12.6-5.74c.43.94.84,1.89,1.23,2.83l-12.81,5.28c.54,1.33,1.05,2.69,1.51,4.06l23.52-8.05c.37,1.1.73,2.21,1.07,3.32l-23.8,7.2c.4,1.33.76,2.67,1.08,4.02l13.51-3.25c.24,1,.47,2.02.67,3.02l-13.63,2.76c.28,1.41.53,2.83.72,4.26l24.64-3.43c.16,1.15.3,2.31.42,3.45l-24.76,2.55c.14,1.37.24,2.76.3,4.16l13.9-.62c.04.99.07,2,.08,2.99v.09s-13.91.12-13.91.12c0,0,0,0,0,.01.01,1.45-.02,2.89-.09,4.33l24.86,1.24c-.06,1.15-.14,2.32-.23,3.46l-24.79-2.12c-.12,1.39-.27,2.77-.47,4.15l13.74,1.99c-.15,1.01-.31,2.04-.5,3.05l-13.65-2.48c-.25,1.42-.55,2.84-.88,4.23l24.14,5.9c-.27,1.12-.57,2.26-.89,3.38l-23.9-6.78c-.37,1.34-.79,2.67-1.24,3.99l13.07,4.54c-.34.97-.7,1.95-1.07,2.9l-12.89-5.01c-.52,1.35-1.07,2.68-1.67,3.99l22.51,10.37c-.48,1.05-.99,2.11-1.51,3.14l-22.11-11.18c-.62,1.25-1.28,2.48-1.98,3.69l11.92,6.91c-.51.88-1.05,1.77-1.6,2.64l-11.64-7.33c-.76,1.22-1.56,2.42-2.4,3.6l20.09,14.4c-.67.94-1.37,1.88-2.08,2.8l-19.54-15.11c-.84,1.11-1.73,2.19-2.64,3.25l10.33,8.99c-.67.77-1.37,1.54-2.06,2.29l-9.99-9.34c-.53.58-1.07,1.15-1.62,1.71-.46.47-.94.94-1.41,1.4l16.95,17.85c-.84.8-1.7,1.59-2.57,2.35l-15.29-17.32h0s-3.1-3.51-3.1-3.51c1.07-.97,2.12-1.97,3.14-3.01,13-13.25,20.06-30.77,19.88-49.33-.37-38.09-31.47-68.82-69.47-68.82-.23,0-.45,0-.68,0-18.56.18-35.94,7.57-48.94,20.82-13,13.25-20.06,30.77-19.88,49.33.18,18.56,7.57,35.94,20.82,48.94.36.35.71.69,1.08,1.03l-2.19,2.28s0,0,0,0l-16.23,16.94c-.83-.8-1.66-1.62-2.47-2.45l16.81-16.34c-1-1.01-1.97-2.05-2.91-3.12l-9.39,8.13c-.67-.77-1.33-1.57-1.98-2.37l9.67-7.77c-.93-1.14-1.83-2.3-2.69-3.49l-19.03,13.53c-.67-.94-1.33-1.91-1.97-2.88l19.5-12.82c-.79-1.18-1.55-2.39-2.27-3.62l-10.67,6.16c-.51-.89-1.02-1.8-1.5-2.7l10.87-5.76c-.7-1.29-1.36-2.61-1.98-3.95l-21.17,9.63c-.48-1.06-.95-2.13-1.39-3.2l21.5-8.86c-.55-1.31-1.06-2.64-1.53-3.99l-11.57,4c-.34-.97-.66-1.96-.96-2.94l11.7-3.58c-.43-1.4-.83-2.82-1.18-4.26l-22.56,5.41c-.27-1.12-.52-2.27-.75-3.41l22.73-4.58c-.28-1.39-.53-2.8-.73-4.22l-12.08,1.71c-.14-1.02-.27-2.05-.38-3.06l12.13-1.28c-.16-1.46-.27-2.93-.33-4.41l-23.14,1.04c-.05-1.15-.08-2.32-.09-3.47v-.16s23.16-.22,23.16-.22Z"/>
            </g>
            <path class="cls-2" d="M664.18,475.54c13.98,0,27.56-3.97,39.28-11.48l-2.59-4.03c-10.94,7.02-23.63,10.72-36.69,10.72s-26.22-3.85-37.31-11.12l-2.63,4.01c11.87,7.79,25.68,11.91,39.94,11.91Z"/>
            <path class="cls-2" d="M663.6,487.14c16.35,0,32.2-4.71,45.82-13.61l-2.18-3.34c-12.98,8.48-28.07,12.96-43.64,12.96s-31.22-4.65-44.36-13.44l-2.22,3.32c13.8,9.23,29.91,14.11,46.58,14.11Z"/>
            <path class="cls-2" d="M664.62,497.51c18.05,0,35.61-5.07,50.8-14.66l-2.56-4.05c-14.42,9.11-31.1,13.92-48.24,13.92-18.35,0-36.01-5.46-51.08-15.79l-2.71,3.95c15.87,10.88,34.48,16.63,53.79,16.63Z"/>
            <path class="cls-3" d="M626.26,460.71"/>
          </g>
          <g>
            <g>
              <path class="cls-2" d="M166.2,307.86c1.15.11,2.32.25,3.47.4l-3.22,23.94c-.86-.13-1.72-.24-2.59-.33l2.33-24.01Z"/>
              <path class="cls-2" d="M83.17,404.65c-.01-1.38.02-2.75.09-4.12l-12.17-.6c.05-1.02.12-2.05.21-3.09v-.15s12.14,1.07,12.14,1.07c.13-1.48.3-2.95.52-4.41l-22.92-3.37c.17-1.15.36-2.3.57-3.43l22.79,4.19c.26-1.4.56-2.79.9-4.17l-11.84-2.89c.24-.99.51-2,.79-2.99l11.74,3.32c.41-1.42.86-2.83,1.35-4.21l-21.89-7.68c.38-1.09.79-2.19,1.21-3.26l21.61,8.46c.52-1.32,1.09-2.63,1.69-3.92l-11.13-5.12c.43-.93.88-1.86,1.34-2.78l10.95,5.53c.67-1.31,1.38-2.6,2.14-3.88l-20.1-11.73c.58-.99,1.19-1.99,1.81-2.97l19.68,12.45c.77-1.19,1.57-2.36,2.4-3.51l-10.03-7.19c.59-.83,1.21-1.66,1.84-2.47l9.78,7.57c.91-1.16,1.85-2.29,2.84-3.4l-17.61-15.38c.76-.87,1.54-1.73,2.33-2.58l17.07,16.02c.23-.25.47-.49.7-.73.76-.77,1.53-1.52,2.32-2.26l-8.57-9.04c.74-.7,1.51-1.4,2.28-2.08l8.25,9.35c1.12-.97,2.26-1.9,3.42-2.8l-14.48-18.5c.91-.71,1.85-1.42,2.79-2.1l13.8,19.04c1.15-.82,2.33-1.61,3.53-2.36l-6.78-10.58c.86-.55,1.75-1.1,2.63-1.62l6.4,10.84c1.28-.74,2.57-1.43,3.89-2.09l-10.76-21.03c1.03-.53,2.09-1.05,3.14-1.53l10,21.43c1.29-.58,2.59-1.12,3.91-1.63l-4.71-11.81c.95-.38,1.93-.75,2.9-1.09l4.28,12c1.39-.48,2.79-.91,4.21-1.3l-6.6-22.85c1.11-.32,2.25-.63,3.37-.91l5.78,23.1c1.37-.32,2.75-.61,4.14-.85l-2.4-12.67c1.01-.19,2.03-.37,3.04-.52l1.95,12.78c1.45-.2,2.9-.36,4.37-.48l-2.17-23.86c1.15-.1,2.32-.19,3.47-.25l1.31,23.95c.83-.04,1.65-.06,2.48-.07.24,0,.47,0,.71,0,.34,0,.68,0,1.02.01l.05-13.06c1.02,0,2.06.03,3.08.07l-.51,13.07c1.47.07,2.93.19,4.38.35l2.59.33c1.39.2,2.78.45,4.14.73l2.51-12.97c1,.19,2.02.41,3.02.64l-2.99,12.91c1.42.35,2.82.73,4.21,1.16l6.91-23.29c1.11.33,2.23.68,3.33,1.05l-7.77,23.06c1.33.46,2.63.96,3.92,1.5l5-12.43c.95.38,1.91.79,2.85,1.21l-5.47,12.27c1.32.61,2.62,1.25,3.9,1.94l11.29-21.7c1.02.53,2.05,1.09,3.06,1.66l-12.09,21.3c1.21.7,2.39,1.44,3.56,2.21l7.36-11.38c.86.55,1.72,1.13,2.56,1.72l-7.78,11.13c1.18.84,2.34,1.72,3.46,2.63l15.28-19.28c.9.71,1.8,1.46,2.68,2.21l-15.98,18.74c1.05.91,2.08,1.86,3.07,2.83l9.47-9.88c.74.71,1.48,1.44,2.19,2.17l-9.83,9.55c1,1.05,1.97,2.13,2.91,3.23l18.72-16.14c.76.88,1.5,1.78,2.23,2.68l-19.31,15.47c.86,1.09,1.69,2.21,2.49,3.34l11.24-7.97c.59.84,1.18,1.69,1.74,2.55l-11.52,7.58c.79,1.21,1.54,2.45,2.25,3.72l21.51-12.36c.57,1,1.14,2.03,1.69,3.06l-21.95,11.58c.64,1.23,1.24,2.48,1.81,3.75l12.6-5.74c.43.94.84,1.89,1.23,2.83l-12.81,5.28c.54,1.33,1.05,2.69,1.51,4.06l23.52-8.05c.37,1.1.73,2.21,1.07,3.32l-23.8,7.2c.4,1.33.76,2.67,1.08,4.02l13.51-3.25c.24,1,.47,2.02.67,3.02l-13.63,2.76c.28,1.41.53,2.83.72,4.26l24.64-3.43c.16,1.15.3,2.31.42,3.45l-24.76,2.55c.14,1.37.24,2.76.3,4.16l13.9-.62c.04.99.07,2,.08,2.99v.09s-13.91.12-13.91.12c0,0,0,0,0,.01.01,1.45-.02,2.89-.09,4.33l24.86,1.24c-.06,1.15-.14,2.32-.23,3.46l-24.79-2.12c-.12,1.39-.27,2.77-.47,4.15l13.74,1.99c-.15,1.01-.31,2.04-.5,3.05l-13.65-2.48c-.25,1.42-.55,2.84-.88,4.23l24.14,5.9c-.27,1.12-.57,2.26-.89,3.38l-23.9-6.78c-.37,1.34-.79,2.67-1.24,3.99l13.07,4.54c-.34.97-.7,1.95-1.07,2.9l-12.89-5.01c-.52,1.35-1.07,2.68-1.67,3.99l22.51,10.37c-.48,1.05-.99,2.11-1.51,3.14l-22.11-11.18c-.62,1.25-1.28,2.48-1.98,3.69l11.92,6.91c-.51.88-1.05,1.77-1.6,2.64l-11.64-7.33c-.76,1.22-1.56,2.42-2.4,3.6l20.09,14.4c-.67.94-1.37,1.88-2.08,2.8l-19.54-15.11c-.84,1.11-1.73,2.19-2.64,3.25l10.33,8.99c-.67.77-1.37,1.54-2.06,2.29l-9.99-9.34c-.53.58-1.07,1.15-1.62,1.71-.46.47-.94.94-1.41,1.4l16.95,17.85c-.84.8-1.7,1.59-2.57,2.35l-15.29-17.32h0s-3.1-3.51-3.1-3.51c1.07-.97,2.12-1.97,3.14-3.01,13-13.25,20.06-30.77,19.88-49.33-.37-38.09-31.47-68.82-69.47-68.82-.23,0-.45,0-.68,0-18.56.18-35.94,7.57-48.94,20.82-13,13.25-20.06,30.77-19.88,49.33.18,18.56,7.57,35.94,20.82,48.94.36.35.71.69,1.08,1.03l-2.19,2.28s0,0,0,0l-16.23,16.94c-.83-.8-1.66-1.62-2.47-2.45l16.81-16.34c-1-1.01-1.97-2.05-2.91-3.12l-9.39,8.13c-.67-.77-1.33-1.57-1.98-2.37l9.67-7.77c-.93-1.14-1.83-2.3-2.69-3.49l-19.03,13.53c-.67-.94-1.33-1.91-1.97-2.88l19.5-12.82c-.79-1.18-1.55-2.39-2.27-3.62l-10.67,6.16c-.51-.89-1.02-1.8-1.5-2.7l10.87-5.76c-.7-1.29-1.36-2.61-1.98-3.95l-21.17,9.63c-.48-1.06-.95-2.13-1.39-3.2l21.5-8.86c-.55-1.31-1.06-2.64-1.53-3.99l-11.57,4c-.34-.97-.66-1.96-.96-2.94l11.7-3.58c-.43-1.4-.83-2.82-1.18-4.26l-22.56,5.41c-.27-1.12-.52-2.27-.75-3.41l22.73-4.58c-.28-1.39-.53-2.8-.73-4.22l-12.08,1.71c-.14-1.02-.27-2.05-.38-3.06l12.13-1.28c-.16-1.46-.27-2.93-.33-4.41l-23.14,1.04c-.05-1.15-.08-2.32-.09-3.47v-.16s23.16-.22,23.16-.22Z"/>
            </g>
            <path class="cls-2" d="M155.8,475.54c13.98,0,27.56-3.97,39.28-11.48l-2.59-4.03c-10.94,7.02-23.63,10.72-36.69,10.72s-26.22-3.85-37.31-11.12l-2.63,4.01c11.87,7.79,25.68,11.91,39.94,11.91Z"/>
            <path class="cls-2" d="M155.22,487.14c16.35,0,32.2-4.71,45.82-13.61l-2.18-3.34c-12.98,8.48-28.07,12.96-43.64,12.96s-31.22-4.65-44.36-13.44l-2.22,3.32c13.8,9.23,29.91,14.11,46.58,14.11Z"/>
            <path class="cls-2" d="M156.25,497.51c18.05,0,35.61-5.07,50.8-14.66l-2.56-4.05c-14.42,9.11-31.1,13.92-48.24,13.92-18.35,0-36.01-5.46-51.08-15.79l-2.71,3.95c15.87,10.88,34.48,16.63,53.79,16.63Z"/>
            <path class="cls-3" d="M117.89,460.71"/>
          </g>
          <path class="cls-2" d="M833.65,358.76c.73-1.45,2.07-2.51,3.66-2.86,10.95-2.41,19.15-12.17,19.15-23.84v-.03c0-1.66.75-3.24,2.03-4.3,3.17-2.6,6.5-5,9.99-7.18,1.42-.89,3.29-.34,4.02,1.17l13.62,28.3c.6,1.25.2,2.76-.95,3.54-15.1,10.36-25.17,27.52-25.78,47.06-1.07,34.15,26.42,61.93,60.58,61.21,31.45-.66,56.87-25.79,58.01-57.12,1.26-34.53-27.38-62.97-61.9-61.47-4.81.21-9.47.99-13.92,2.28-1.32.38-2.72-.24-3.32-1.48l-13.72-28.5c-.72-1.5,0-3.3,1.56-3.86,4.97-1.8,10.13-3.19,15.45-4.15,0,0,0,0,0,0,4.4,4.3,10.42,6.95,17.06,6.95,5.6,0,10.76-1.89,14.88-5.06,1.53-1.18,3.48-1.67,5.37-1.26,15.13,3.26,28.92,10.09,40.46,19.57,1.28,1.05,2.03,2.63,2.02,4.29v.03c0,11.53,7.99,21.19,18.74,23.75,1.88.45,3.47,1.73,4.33,3.47,6.35,12.8,9.92,27.23,9.92,42.49,0,.19,0,.39,0,.58-.01,1.98-.92,3.83-2.45,5.08-5.5,4.48-9.02,11.3-9.02,18.95,0,3.92.93,7.63,2.57,10.91.74,1.47.76,3.21.07,4.7-6.44,13.9-16.13,26-28.08,35.32-1.32,1.03-3.04,1.37-4.67.98-1.86-.45-3.8-.69-5.79-.69-9.85,0-18.33,5.83-22.19,14.23-.7,1.51-2.04,2.64-3.66,3.03-7.22,1.74-14.76,2.66-22.52,2.66s-15.3-.92-22.52-2.66c-1.62-.39-2.96-1.51-3.66-3.03-3.86-8.4-12.35-14.23-22.19-14.23-2,0-3.94.24-5.79.69-1.63.4-3.35.05-4.67-.98-11.95-9.32-21.63-21.42-28.08-35.32-.69-1.5-.67-3.23.07-4.7,1.64-3.28,2.57-6.99,2.57-10.91,0-7.8-3.66-14.74-9.35-19.21-1.3-1.02-2.1-2.56-2.12-4.22,0-.39,0-.78,0-1.17,0-15.47,3.67-30.07,10.18-43Z"/>
          <path class="cls-2" d="M325.28,358.76c.73-1.45,2.07-2.51,3.66-2.86,10.95-2.41,19.15-12.17,19.15-23.84v-.03c0-1.66.75-3.24,2.03-4.3,3.17-2.6,6.5-5,9.99-7.18,1.42-.89,3.29-.34,4.02,1.17l13.62,28.3c.6,1.25.2,2.76-.95,3.54-15.1,10.36-25.17,27.52-25.78,47.06-1.07,34.15,26.42,61.93,60.58,61.21,31.45-.66,56.87-25.79,58.01-57.12,1.26-34.53-27.38-62.97-61.9-61.47-4.81.21-9.47.99-13.92,2.28-1.32.38-2.72-.24-3.32-1.48l-13.72-28.5c-.72-1.5,0-3.3,1.56-3.86,4.97-1.8,10.13-3.19,15.45-4.15,0,0,0,0,0,0,4.4,4.3,10.42,6.95,17.06,6.95,5.6,0,10.76-1.89,14.88-5.06,1.53-1.18,3.48-1.67,5.37-1.26,15.13,3.26,28.92,10.09,40.46,19.57,1.28,1.05,2.03,2.63,2.02,4.29v.03c0,11.53,7.99,21.19,18.74,23.75,1.88.45,3.47,1.73,4.33,3.47,6.35,12.8,9.92,27.23,9.92,42.49,0,.19,0,.39,0,.58-.01,1.98-.92,3.83-2.45,5.08-5.5,4.48-9.02,11.3-9.02,18.95,0,3.92.93,7.63,2.57,10.91.74,1.47.76,3.21.07,4.7-6.44,13.9-16.13,26-28.08,35.32-1.32,1.03-3.04,1.37-4.67.98-1.86-.45-3.8-.69-5.79-.69-9.85,0-18.33,5.83-22.19,14.23-.7,1.51-2.04,2.64-3.66,3.03-7.22,1.74-14.76,2.66-22.52,2.66s-15.3-.92-22.52-2.66c-1.62-.39-2.96-1.51-3.66-3.03-3.86-8.4-12.35-14.23-22.19-14.23-2,0-3.94.24-5.79.69-1.63.4-3.35.05-4.67-.98-11.95-9.32-21.63-21.42-28.08-35.32-.69-1.5-.67-3.23.07-4.7,1.64-3.28,2.57-6.99,2.57-10.91,0-7.8-3.66-14.74-9.35-19.21-1.3-1.02-2.1-2.56-2.12-4.22,0-.39,0-.78,0-1.17,0-15.47,3.67-30.07,10.18-43Z"/>
        </g>
        <g>
          <g>
            <g>
              <path class="cls-2" d="M400.38,555.4c-1.15.11-2.32.25-3.47.4l3.22,23.94c.86-.13,1.72-.24,2.59-.33l-2.33-24.01Z"/>
              <path class="cls-2" d="M483.41,652.19c.01-1.38-.02-2.75-.09-4.12l12.17-.6c-.05-1.02-.12-2.05-.21-3.09v-.15s-12.14,1.07-12.14,1.07c-.13-1.48-.3-2.95-.52-4.41l22.92-3.37c-.17-1.15-.36-2.3-.57-3.43l-22.79,4.19c-.26-1.4-.56-2.79-.9-4.17l11.84-2.89c-.24-.99-.51-2-.79-2.99l-11.74,3.32c-.41-1.42-.86-2.83-1.35-4.21l21.89-7.68c-.38-1.09-.79-2.19-1.21-3.26l-21.61,8.46c-.52-1.32-1.09-2.63-1.69-3.92l11.13-5.12c-.43-.93-.88-1.86-1.34-2.78l-10.95,5.53c-.67-1.31-1.38-2.6-2.14-3.88l20.1-11.73c-.58-.99-1.19-1.99-1.81-2.97l-19.68,12.45c-.77-1.19-1.57-2.36-2.4-3.51l10.03-7.19c-.59-.83-1.21-1.66-1.84-2.47l-9.78,7.57c-.91-1.16-1.85-2.29-2.84-3.4l17.61-15.38c-.76-.87-1.54-1.73-2.33-2.58l-17.07,16.02c-.23-.25-.47-.49-.7-.73-.76-.77-1.53-1.52-2.32-2.26l8.57-9.04c-.74-.7-1.51-1.4-2.28-2.08l-8.25,9.35c-1.12-.97-2.26-1.9-3.42-2.8l14.48-18.5c-.91-.71-1.85-1.42-2.79-2.1l-13.8,19.04c-1.15-.82-2.33-1.61-3.53-2.36l6.78-10.58c-.86-.55-1.75-1.1-2.63-1.62l-6.4,10.84c-1.28-.74-2.57-1.43-3.89-2.09l10.76-21.03c-1.03-.53-2.09-1.05-3.14-1.53l-10,21.43c-1.29-.58-2.59-1.12-3.91-1.63l4.71-11.81c-.95-.38-1.93-.75-2.9-1.09l-4.28,12c-1.39-.48-2.79-.91-4.21-1.3l6.6-22.85c-1.11-.32-2.25-.63-3.37-.91l-5.78,23.1c-1.37-.32-2.75-.61-4.14-.85l2.4-12.67c-1.01-.19-2.03-.37-3.04-.52l-1.95,12.78c-1.45-.2-2.9-.36-4.37-.48l2.17-23.86c-1.15-.1-2.32-.19-3.47-.25l-1.31,23.95c-.83-.04-1.65-.06-2.48-.07-.24,0-.47,0-.71,0-.34,0-.68,0-1.02.01l-.05-13.06c-1.02,0-2.06.03-3.08.07l.51,13.07c-1.47.07-2.93.19-4.38.35l-2.59.33c-1.39.2-2.78.45-4.14.73l-2.51-12.97c-1,.19-2.02.41-3.02.64l2.99,12.91c-1.42.35-2.82.73-4.21,1.16l-6.91-23.29c-1.11.33-2.23.68-3.33,1.05l7.77,23.06c-1.33.46-2.63.96-3.92,1.5l-5-12.43c-.95.38-1.91.79-2.85,1.21l5.47,12.27c-1.32.61-2.62,1.25-3.9,1.94l-11.29-21.7c-1.02.53-2.05,1.09-3.06,1.66l12.09,21.3c-1.21.7-2.39,1.44-3.56,2.21l-7.36-11.38c-.86.55-1.72,1.13-2.56,1.72l7.78,11.13c-1.18.84-2.34,1.72-3.46,2.63l-15.28-19.28c-.9.71-1.8,1.46-2.68,2.21l15.98,18.74c-1.05.91-2.08,1.86-3.07,2.83l-9.47-9.88c-.74.71-1.48,1.44-2.19,2.17l9.83,9.55c-1,1.05-1.97,2.13-2.91,3.23l-18.72-16.14c-.76.88-1.5,1.78-2.23,2.68l19.31,15.47c-.86,1.09-1.69,2.21-2.49,3.34l-11.24-7.97c-.59.84-1.18,1.69-1.74,2.55l11.52,7.58c-.79,1.21-1.54,2.45-2.25,3.72l-21.51-12.36c-.57,1-1.14,2.03-1.69,3.06l21.95,11.58c-.64,1.23-1.24,2.48-1.81,3.75l-12.6-5.74c-.43.94-.84,1.89-1.23,2.83l12.81,5.28c-.54,1.33-1.05,2.69-1.51,4.06l-23.52-8.05c-.37,1.1-.73,2.21-1.07,3.32l23.8,7.2c-.4,1.33-.76,2.67-1.08,4.02l-13.51-3.25c-.24,1-.47,2.02-.67,3.02l13.63,2.76c-.28,1.41-.53,2.83-.72,4.26l-24.64-3.43c-.16,1.15-.3,2.31-.42,3.45l24.76,2.55c-.14,1.37-.24,2.76-.3,4.16l-13.9-.62c-.04.99-.07,2-.08,2.99v.09s13.91.12,13.91.12c0,0,0,0,0,.01-.01,1.45.02,2.89.09,4.33l-24.86,1.24c.06,1.15.14,2.32.23,3.46l24.79-2.12c.12,1.39.27,2.77.47,4.15l-13.74,1.99c.15,1.01.31,2.04.5,3.05l13.65-2.48c.25,1.42.55,2.84.88,4.23l-24.14,5.9c.27,1.12.57,2.26.89,3.38l23.9-6.78c.37,1.34.79,2.67,1.24,3.99l-13.07,4.54c.34.97.7,1.95,1.07,2.9l12.89-5.01c.52,1.35,1.07,2.68,1.67,3.99l-22.51,10.37c.48,1.05.99,2.11,1.51,3.14l22.11-11.18c.62,1.25,1.28,2.48,1.98,3.69l-11.92,6.91c.51.88,1.05,1.77,1.6,2.64l11.64-7.33c.76,1.22,1.56,2.42,2.4,3.6l-20.09,14.4c.67.94,1.37,1.88,2.08,2.8l19.54-15.11c.84,1.11,1.73,2.19,2.64,3.25l-10.33,8.99c.67.77,1.37,1.54,2.06,2.29l9.99-9.34c.53.58,1.07,1.15,1.62,1.71.46.47.94.94,1.41,1.4l-16.95,17.85c.84.8,1.7,1.59,2.57,2.35l15.29-17.32h0s3.1-3.51,3.1-3.51c-1.07-.97-2.12-1.97-3.14-3.01-13-13.25-20.06-30.77-19.88-49.33.37-38.09,31.47-68.82,69.47-68.82.23,0,.45,0,.68,0,18.56.18,35.94,7.57,48.94,20.82,13,13.25,20.06,30.77,19.88,49.33-.18,18.56-7.57,35.94-20.82,48.94-.36.35-.71.69-1.08,1.03l2.19,2.28s0,0,0,0l16.23,16.94c.83-.8,1.66-1.62,2.47-2.45l-16.81-16.34c1-1.01,1.97-2.05,2.91-3.12l9.39,8.13c.67-.77,1.33-1.57,1.98-2.37l-9.67-7.77c.93-1.14,1.83-2.3,2.69-3.49l19.03,13.53c.67-.94,1.33-1.91,1.97-2.88l-19.5-12.82c.79-1.18,1.55-2.39,2.27-3.62l10.67,6.16c.51-.89,1.02-1.8,1.5-2.7l-10.87-5.76c.7-1.29,1.36-2.61,1.98-3.95l21.17,9.63c.48-1.06.95-2.13,1.39-3.2l-21.5-8.86c.55-1.31,1.06-2.64,1.53-3.99l11.57,4c.34-.97.66-1.96.96-2.94l-11.7-3.58c.43-1.4.83-2.82,1.18-4.26l22.56,5.41c.27-1.12.52-2.27.75-3.41l-22.73-4.58c.28-1.39.53-2.8.73-4.22l12.08,1.71c.14-1.02.27-2.05.38-3.06l-12.13-1.28c.16-1.46.27-2.93.33-4.41l23.14,1.04c.05-1.15.08-2.32.09-3.47v-.16s-23.16-.22-23.16-.22Z"/>
            </g>
            <path class="cls-2" d="M410.78,723.09c-13.98,0-27.56-3.97-39.28-11.48l2.59-4.03c10.94,7.02,23.63,10.72,36.69,10.72s26.22-3.85,37.31-11.12l2.63,4.01c-11.87,7.79-25.68,11.91-39.94,11.91Z"/>
            <path class="cls-2" d="M411.35,734.68c-16.35,0-32.2-4.71-45.82-13.61l2.18-3.34c12.98,8.48,28.07,12.96,43.64,12.96s31.22-4.65,44.36-13.44l2.22,3.32c-13.8,9.23-29.91,14.11-46.58,14.11Z"/>
            <path class="cls-2" d="M410.33,745.05c-18.05,0-35.61-5.07-50.8-14.66l2.56-4.05c14.42,9.11,31.1,13.92,48.24,13.92,18.35,0,36.01-5.46,51.08-15.79l2.71,3.95c-15.87,10.88-34.48,16.63-53.79,16.63Z"/>
            <path class="cls-3" d="M448.69,708.25"/>
          </g>
          <g>
            <g>
              <path class="cls-2" d="M908.76,555.4c-1.15.11-2.32.25-3.47.4l3.22,23.94c.86-.13,1.72-.24,2.59-.33l-2.33-24.01Z"/>
              <path class="cls-2" d="M991.79,652.19c.01-1.38-.02-2.75-.09-4.12l12.17-.6c-.05-1.02-.12-2.05-.21-3.09v-.15s-12.14,1.07-12.14,1.07c-.13-1.48-.3-2.95-.52-4.41l22.92-3.37c-.17-1.15-.36-2.3-.57-3.43l-22.79,4.19c-.26-1.4-.56-2.79-.9-4.17l11.84-2.89c-.24-.99-.51-2-.79-2.99l-11.74,3.32c-.41-1.42-.86-2.83-1.35-4.21l21.89-7.68c-.38-1.09-.79-2.19-1.21-3.26l-21.61,8.46c-.52-1.32-1.09-2.63-1.69-3.92l11.13-5.12c-.43-.93-.88-1.86-1.34-2.78l-10.95,5.53c-.67-1.31-1.38-2.6-2.14-3.88l20.1-11.73c-.58-.99-1.19-1.99-1.81-2.97l-19.68,12.45c-.77-1.19-1.57-2.36-2.4-3.51l10.03-7.19c-.59-.83-1.21-1.66-1.84-2.47l-9.78,7.57c-.91-1.16-1.85-2.29-2.84-3.4l17.61-15.38c-.76-.87-1.54-1.73-2.33-2.58l-17.07,16.02c-.23-.25-.47-.49-.7-.73-.76-.77-1.53-1.52-2.32-2.26l8.57-9.04c-.74-.7-1.51-1.4-2.28-2.08l-8.25,9.35c-1.12-.97-2.26-1.9-3.42-2.8l14.48-18.5c-.91-.71-1.85-1.42-2.79-2.1l-13.8,19.04c-1.15-.82-2.33-1.61-3.53-2.36l6.78-10.58c-.86-.55-1.75-1.1-2.63-1.62l-6.4,10.84c-1.28-.74-2.57-1.43-3.89-2.09l10.76-21.03c-1.03-.53-2.09-1.05-3.14-1.53l-10,21.43c-1.29-.58-2.59-1.12-3.91-1.63l4.71-11.81c-.95-.38-1.93-.75-2.9-1.09l-4.28,12c-1.39-.48-2.79-.91-4.21-1.3l6.6-22.85c-1.11-.32-2.25-.63-3.37-.91l-5.78,23.1c-1.37-.32-2.75-.61-4.14-.85l2.4-12.67c-1.01-.19-2.03-.37-3.04-.52l-1.95,12.78c-1.45-.2-2.9-.36-4.37-.48l2.17-23.86c-1.15-.1-2.32-.19-3.47-.25l-1.31,23.95c-.83-.04-1.65-.06-2.48-.07-.24,0-.47,0-.71,0-.34,0-.68,0-1.02.01l-.05-13.06c-1.02,0-2.06.03-3.08.07l.51,13.07c-1.47.07-2.93.19-4.38.35l-2.59.33c-1.39.2-2.78.45-4.14.73l-2.51-12.97c-1,.19-2.02.41-3.02.64l2.99,12.91c-1.42.35-2.82.73-4.21,1.16l-6.91-23.29c-1.11.33-2.23.68-3.33,1.05l7.77,23.06c-1.33.46-2.63.96-3.92,1.5l-5-12.43c-.95.38-1.91.79-2.85,1.21l5.47,12.27c-1.32.61-2.62,1.25-3.9,1.94l-11.29-21.7c-1.02.53-2.05,1.09-3.06,1.66l12.09,21.3c-1.21.7-2.39,1.44-3.56,2.21l-7.36-11.38c-.86.55-1.72,1.13-2.56,1.72l7.78,11.13c-1.18.84-2.34,1.72-3.46,2.63l-15.28-19.28c-.9.71-1.8,1.46-2.68,2.21l15.98,18.74c-1.05.91-2.08,1.86-3.07,2.83l-9.47-9.88c-.74.71-1.48,1.44-2.19,2.17l9.83,9.55c-1,1.05-1.97,2.13-2.91,3.23l-18.72-16.14c-.76.88-1.5,1.78-2.23,2.68l19.31,15.47c-.86,1.09-1.69,2.21-2.49,3.34l-11.24-7.97c-.59.84-1.18,1.69-1.74,2.55l11.52,7.58c-.79,1.21-1.54,2.45-2.25,3.72l-21.51-12.36c-.57,1-1.14,2.03-1.69,3.06l21.95,11.58c-.64,1.23-1.24,2.48-1.81,3.75l-12.6-5.74c-.43.94-.84,1.89-1.23,2.83l12.81,5.28c-.54,1.33-1.05,2.69-1.51,4.06l-23.52-8.05c-.37,1.1-.73,2.21-1.07,3.32l23.8,7.2c-.4,1.33-.76,2.67-1.08,4.02l-13.51-3.25c-.24,1-.47,2.02-.67,3.02l13.63,2.76c-.28,1.41-.53,2.83-.72,4.26l-24.64-3.43c-.16,1.15-.3,2.31-.42,3.45l24.76,2.55c-.14,1.37-.24,2.76-.3,4.16l-13.9-.62c-.04.99-.07,2-.08,2.99v.09s13.91.12,13.91.12c0,0,0,0,0,.01-.01,1.45.02,2.89.09,4.33l-24.86,1.24c.06,1.15.14,2.32.23,3.46l24.79-2.12c.12,1.39.27,2.77.47,4.15l-13.74,1.99c.15,1.01.31,2.04.5,3.05l13.65-2.48c.25,1.42.55,2.84.88,4.23l-24.14,5.9c.27,1.12.57,2.26.89,3.38l23.9-6.78c.37,1.34.79,2.67,1.24,3.99l-13.07,4.54c.34.97.7,1.95,1.07,2.9l12.89-5.01c.52,1.35,1.07,2.68,1.67,3.99l-22.51,10.37c.48,1.05.99,2.11,1.51,3.14l22.11-11.18c.62,1.25,1.28,2.48,1.98,3.69l-11.92,6.91c.51.88,1.05,1.77,1.6,2.64l11.64-7.33c.76,1.22,1.56,2.42,2.4,3.6l-20.09,14.4c.67.94,1.37,1.88,2.08,2.8l19.54-15.11c.84,1.11,1.73,2.19,2.64,3.25l-10.33,8.99c.67.77,1.37,1.54,2.06,2.29l9.99-9.34c.53.58,1.07,1.15,1.62,1.71.46.47.94.94,1.41,1.4l-16.95,17.85c.84.8,1.7,1.59,2.57,2.35l15.29-17.32h0s3.1-3.51,3.1-3.51c-1.07-.97-2.12-1.97-3.14-3.01-13-13.25-20.06-30.77-19.88-49.33.37-38.09,31.47-68.82,69.47-68.82.23,0,.45,0,.68,0,18.56.18,35.94,7.57,48.94,20.82,13,13.25,20.06,30.77,19.88,49.33-.18,18.56-7.57,35.94-20.82,48.94-.36.35-.71.69-1.08,1.03l2.19,2.28s0,0,0,0l16.23,16.94c.83-.8,1.66-1.62,2.47-2.45l-16.81-16.34c1-1.01,1.97-2.05,2.91-3.12l9.39,8.13c.67-.77,1.33-1.57,1.98-2.37l-9.67-7.77c.93-1.14,1.83-2.3,2.69-3.49l19.03,13.53c.67-.94,1.33-1.91,1.97-2.88l-19.5-12.82c.79-1.18,1.55-2.39,2.27-3.62l10.67,6.16c.51-.89,1.02-1.8,1.5-2.7l-10.87-5.76c.7-1.29,1.36-2.61,1.98-3.95l21.17,9.63c.48-1.06.95-2.13,1.39-3.2l-21.5-8.86c.55-1.31,1.06-2.64,1.53-3.99l11.57,4c.34-.97.66-1.96.96-2.94l-11.7-3.58c.43-1.4.83-2.82,1.18-4.26l22.56,5.41c.27-1.12.52-2.27.75-3.41l-22.73-4.58c.28-1.39.53-2.8.73-4.22l12.08,1.71c.14-1.02.27-2.05.38-3.06l-12.13-1.28c.16-1.46.27-2.93.33-4.41l23.14,1.04c.05-1.15.08-2.32.09-3.47v-.16s-23.16-.22-23.16-.22Z"/>
            </g>
            <path class="cls-2" d="M919.15,723.09c-13.98,0-27.56-3.97-39.28-11.48l2.59-4.03c10.94,7.02,23.63,10.72,36.69,10.72s26.22-3.85,37.31-11.12l2.63,4.01c-11.87,7.79-25.68,11.91-39.94,11.91Z"/>
            <path class="cls-2" d="M919.73,734.68c-16.35,0-32.2-4.71-45.82-13.61l2.18-3.34c12.98,8.48,28.07,12.96,43.64,12.96s31.22-4.65,44.36-13.44l2.22,3.32c-13.8,9.23-29.91,14.11-46.58,14.11Z"/>
            <path class="cls-2" d="M918.71,745.05c-18.05,0-35.61-5.07-50.8-14.66l2.56-4.05c14.42,9.11,31.1,13.92,48.24,13.92,18.35,0,36.01-5.46,51.08-15.79l2.71,3.95c-15.87,10.88-34.48,16.63-53.79,16.63Z"/>
            <path class="cls-3" d="M957.07,708.25"/>
          </g>
          <path class="cls-2" d="M241.3,606.31c-.73-1.45-2.07-2.51-3.66-2.86-10.95-2.41-19.15-12.17-19.15-23.84v-.03c0-1.66-.75-3.24-2.03-4.3-3.17-2.6-6.5-5-9.99-7.18-1.42-.89-3.29-.34-4.02,1.17l-13.62,28.3c-.6,1.25-.2,2.76.95,3.54,15.1,10.36,25.17,27.52,25.78,47.06,1.07,34.15-26.42,61.93-60.58,61.21-31.45-.66-56.87-25.79-58.01-57.12-1.26-34.53,27.38-62.97,61.9-61.47,4.81.21,9.47.99,13.92,2.28,1.32.38,2.72-.24,3.32-1.48l13.72-28.5c.72-1.5,0-3.3-1.56-3.86-4.97-1.8-10.13-3.19-15.45-4.15,0,0,0,0,0,0-4.4,4.3-10.42,6.95-17.06,6.95-5.6,0-10.76-1.89-14.88-5.06-1.53-1.18-3.48-1.67-5.37-1.26-15.13,3.26-28.92,10.09-40.46,19.57-1.28,1.05-2.03,2.63-2.02,4.29v.03c0,11.53-7.99,21.19-18.74,23.75-1.88.45-3.47,1.73-4.33,3.47-6.35,12.8-9.92,27.23-9.92,42.49,0,.19,0,.39,0,.58.01,1.98.92,3.83,2.45,5.08,5.5,4.48,9.02,11.3,9.02,18.95,0,3.92-.93,7.63-2.57,10.91-.74,1.47-.76,3.21-.07,4.7,6.44,13.9,16.13,26,28.08,35.32,1.32,1.03,3.04,1.37,4.67.98,1.86-.45,3.8-.69,5.79-.69,9.85,0,18.33,5.83,22.19,14.23.7,1.51,2.04,2.64,3.66,3.03,7.22,1.74,14.76,2.66,22.52,2.66s15.3-.92,22.52-2.66c1.62-.39,2.96-1.51,3.66-3.03,3.86-8.4,12.35-14.23,22.19-14.23,2,0,3.94.24,5.79.69,1.63.4,3.35.05,4.67-.98,11.95-9.32,21.63-21.42,28.08-35.32.69-1.5.67-3.23-.07-4.7-1.64-3.28-2.57-6.99-2.57-10.91,0-7.8,3.66-14.74,9.35-19.21,1.3-1.02,2.1-2.56,2.12-4.22,0-.39,0-.78,0-1.17,0-15.47-3.67-30.07-10.18-43Z"/>
          <path class="cls-2" d="M749.68,606.31c-.73-1.45-2.07-2.51-3.66-2.86-10.95-2.41-19.15-12.17-19.15-23.84v-.03c0-1.66-.75-3.24-2.03-4.3-3.17-2.6-6.5-5-9.99-7.18-1.42-.89-3.29-.34-4.02,1.17l-13.62,28.3c-.6,1.25-.2,2.76.95,3.54,15.1,10.36,25.17,27.52,25.78,47.06,1.07,34.15-26.42,61.93-60.58,61.21-31.45-.66-56.87-25.79-58.01-57.12-1.26-34.53,27.38-62.97,61.9-61.47,4.81.21,9.47.99,13.92,2.28,1.32.38,2.72-.24,3.32-1.48l13.72-28.5c.72-1.5,0-3.3-1.56-3.86-4.97-1.8-10.13-3.19-15.45-4.15,0,0,0,0,0,0-4.4,4.3-10.42,6.95-17.06,6.95-5.6,0-10.76-1.89-14.88-5.06-1.53-1.18-3.48-1.67-5.37-1.26-15.13,3.26-28.92,10.09-40.46,19.57-1.28,1.05-2.03,2.63-2.02,4.29v.03c0,11.53-7.99,21.19-18.74,23.75-1.88.45-3.47,1.73-4.33,3.47-6.35,12.8-9.92,27.23-9.92,42.49,0,.19,0,.39,0,.58.01,1.98.92,3.83,2.45,5.08,5.5,4.48,9.02,11.3,9.02,18.95,0,3.92-.93,7.63-2.57,10.91-.74,1.47-.76,3.21-.07,4.7,6.44,13.9,16.13,26,28.08,35.32,1.32,1.03,3.04,1.37,4.67.98,1.86-.45,3.8-.69,5.79-.69,9.85,0,18.33,5.83,22.19,14.23.7,1.51,2.04,2.64,3.66,3.03,7.22,1.74,14.76,2.66,22.52,2.66s15.3-.92,22.52-2.66c1.62-.39,2.96-1.51,3.66-3.03,3.86-8.4,12.35-14.23,22.19-14.23,2,0,3.94.24,5.79.69,1.63.4,3.35.05,4.67-.98,11.95-9.32,21.63-21.42,28.08-35.32.69-1.5.67-3.23-.07-4.7-1.64-3.28-2.57-6.99-2.57-10.91,0-7.8,3.66-14.74,9.35-19.21,1.3-1.02,2.1-2.56,2.12-4.22,0-.39,0-.78,0-1.17,0-15.47-3.67-30.07-10.18-43Z"/>
        </g>
        <g>
          <g>
            <g>
              <path class="cls-2" d="M674.57,802.95c1.15.11,2.32.25,3.47.4l-3.22,23.94c-.86-.13-1.72-.24-2.59-.33l2.33-24.01Z"/>
              <path class="cls-2" d="M591.54,899.74c-.01-1.38.02-2.75.09-4.12l-12.17-.6c.05-1.02.12-2.05.21-3.09v-.15s12.14,1.07,12.14,1.07c.13-1.48.3-2.95.52-4.41l-22.92-3.37c.17-1.15.36-2.3.57-3.43l22.79,4.19c.26-1.4.56-2.79.9-4.17l-11.84-2.89c.24-.99.51-2,.79-2.99l11.74,3.32c.41-1.42.86-2.83,1.35-4.21l-21.89-7.68c.38-1.09.79-2.19,1.21-3.26l21.61,8.46c.52-1.32,1.09-2.63,1.69-3.92l-11.13-5.12c.43-.93.88-1.86,1.34-2.78l10.95,5.53c.67-1.31,1.38-2.6,2.14-3.88l-20.1-11.73c.58-.99,1.19-1.99,1.81-2.97l19.68,12.45c.77-1.19,1.57-2.36,2.4-3.51l-10.03-7.19c.59-.83,1.21-1.66,1.84-2.47l9.78,7.57c.91-1.16,1.85-2.29,2.84-3.4l-17.61-15.38c.76-.87,1.54-1.73,2.33-2.58l17.07,16.02c.23-.25.47-.49.7-.73.76-.77,1.53-1.52,2.32-2.26l-8.57-9.04c.74-.7,1.51-1.4,2.28-2.08l8.25,9.35c1.12-.97,2.26-1.9,3.42-2.8l-14.48-18.5c.91-.71,1.85-1.42,2.79-2.1l13.8,19.04c1.15-.82,2.33-1.61,3.53-2.36l-6.78-10.58c.86-.55,1.75-1.1,2.63-1.62l6.4,10.84c1.28-.74,2.57-1.43,3.89-2.09l-10.76-21.03c1.03-.53,2.09-1.05,3.14-1.53l10,21.43c1.29-.58,2.59-1.12,3.91-1.63l-4.71-11.81c.95-.38,1.93-.75,2.9-1.09l4.28,12c1.39-.48,2.79-.91,4.21-1.3l-6.6-22.85c1.11-.32,2.25-.63,3.37-.91l5.78,23.1c1.37-.32,2.75-.61,4.14-.85l-2.4-12.67c1.01-.19,2.03-.37,3.04-.52l1.95,12.78c1.45-.2,2.9-.36,4.37-.48l-2.17-23.86c1.15-.1,2.32-.19,3.47-.25l1.31,23.95c.83-.04,1.65-.06,2.48-.07.24,0,.47,0,.71,0,.34,0,.68,0,1.02.01l.05-13.06c1.02,0,2.06.03,3.08.07l-.51,13.07c1.47.07,2.93.19,4.38.35l2.59.33c1.39.2,2.78.45,4.14.73l2.51-12.97c1,.19,2.02.41,3.02.64l-2.99,12.91c1.42.35,2.82.73,4.21,1.16l6.91-23.29c1.11.33,2.23.68,3.33,1.05l-7.77,23.06c1.33.46,2.63.96,3.92,1.5l5-12.43c.95.38,1.91.79,2.85,1.21l-5.47,12.27c1.32.61,2.62,1.25,3.9,1.94l11.29-21.7c1.02.53,2.05,1.09,3.06,1.66l-12.09,21.3c1.21.7,2.39,1.44,3.56,2.21l7.36-11.38c.86.55,1.72,1.13,2.56,1.72l-7.78,11.13c1.18.84,2.34,1.72,3.46,2.63l15.28-19.28c.9.71,1.8,1.46,2.68,2.21l-15.98,18.74c1.05.91,2.08,1.86,3.07,2.83l9.47-9.88c.74.71,1.48,1.44,2.19,2.17l-9.83,9.55c1,1.05,1.97,2.13,2.91,3.23l18.72-16.14c.76.88,1.5,1.78,2.23,2.68l-19.31,15.47c.86,1.09,1.69,2.21,2.49,3.34l11.24-7.97c.59.84,1.18,1.69,1.74,2.55l-11.52,7.58c.79,1.21,1.54,2.45,2.25,3.72l21.51-12.36c.57,1,1.14,2.03,1.69,3.06l-21.95,11.58c.64,1.23,1.24,2.48,1.81,3.75l12.6-5.74c.43.94.84,1.89,1.23,2.83l-12.81,5.28c.54,1.33,1.05,2.69,1.51,4.06l23.52-8.05c.37,1.1.73,2.21,1.07,3.32l-23.8,7.2c.4,1.33.76,2.67,1.08,4.02l13.51-3.25c.24,1,.47,2.02.67,3.02l-13.63,2.76c.28,1.41.53,2.83.72,4.26l24.64-3.43c.16,1.15.3,2.31.42,3.45l-24.76,2.55c.14,1.37.24,2.76.3,4.16l13.9-.62c.04.99.07,2,.08,2.99v.09s-13.91.12-13.91.12c0,0,0,0,0,.01.01,1.45-.02,2.89-.09,4.33l24.86,1.24c-.06,1.15-.14,2.32-.23,3.46l-24.79-2.12c-.12,1.39-.27,2.77-.47,4.15l13.74,1.99c-.15,1.01-.31,2.04-.5,3.05l-13.65-2.48c-.25,1.42-.55,2.84-.88,4.23l24.14,5.9c-.27,1.12-.57,2.26-.89,3.38l-23.9-6.78c-.37,1.34-.79,2.67-1.24,3.99l13.07,4.54c-.34.97-.7,1.95-1.07,2.9l-12.89-5.01c-.52,1.35-1.07,2.68-1.67,3.99l22.51,10.37c-.48,1.05-.99,2.11-1.51,3.14l-22.11-11.18c-.62,1.25-1.28,2.48-1.98,3.69l11.92,6.91c-.51.88-1.05,1.77-1.6,2.64l-11.64-7.33c-.76,1.22-1.56,2.42-2.4,3.6l20.09,14.4c-.67.94-1.37,1.88-2.08,2.8l-19.54-15.11c-.84,1.11-1.73,2.19-2.64,3.25l10.33,8.99c-.67.77-1.37,1.54-2.06,2.29l-9.99-9.34c-.53.58-1.07,1.15-1.62,1.71-.46.47-.94.94-1.41,1.4l16.95,17.85c-.84.8-1.7,1.59-2.57,2.35l-15.29-17.32h0s-3.1-3.51-3.1-3.51c1.07-.97,2.12-1.97,3.14-3.01,13-13.25,20.06-30.77,19.88-49.33-.37-38.09-31.47-68.82-69.47-68.82-.23,0-.45,0-.68,0-18.56.18-35.94,7.57-48.94,20.82-13,13.25-20.06,30.77-19.88,49.33.18,18.56,7.57,35.94,20.82,48.94.36.35.71.69,1.08,1.03l-2.19,2.28s0,0,0,0l-16.23,16.94c-.83-.8-1.66-1.62-2.47-2.45l16.81-16.34c-1-1.01-1.97-2.05-2.91-3.12l-9.39,8.13c-.67-.77-1.33-1.57-1.98-2.37l9.67-7.77c-.93-1.14-1.83-2.3-2.69-3.49l-19.03,13.53c-.67-.94-1.33-1.91-1.97-2.88l19.5-12.82c-.79-1.18-1.55-2.39-2.27-3.62l-10.67,6.16c-.51-.89-1.02-1.8-1.5-2.7l10.87-5.76c-.7-1.29-1.36-2.61-1.98-3.95l-21.17,9.63c-.48-1.06-.95-2.13-1.39-3.2l21.5-8.86c-.55-1.31-1.06-2.64-1.53-3.99l-11.57,4c-.34-.97-.66-1.96-.96-2.94l11.7-3.58c-.43-1.4-.83-2.82-1.18-4.26l-22.56,5.41c-.27-1.12-.52-2.27-.75-3.41l22.73-4.58c-.28-1.39-.53-2.8-.73-4.22l-12.08,1.71c-.14-1.02-.27-2.05-.38-3.06l12.13-1.28c-.16-1.46-.27-2.93-.33-4.41l-23.14,1.04c-.05-1.15-.08-2.32-.09-3.47v-.16s23.16-.22,23.16-.22Z"/>
            </g>
            <path class="cls-2" d="M664.18,970.63c13.98,0,27.56-3.97,39.28-11.48l-2.59-4.03c-10.94,7.02-23.63,10.72-36.69,10.72s-26.22-3.85-37.31-11.12l-2.63,4.01c11.87,7.79,25.68,11.91,39.94,11.91Z"/>
            <path class="cls-2" d="M663.6,982.22c16.35,0,32.2-4.71,45.82-13.61l-2.18-3.34c-12.98,8.48-28.07,12.96-43.64,12.96s-31.22-4.65-44.36-13.44l-2.22,3.32c13.8,9.23,29.91,14.11,46.58,14.11Z"/>
            <path class="cls-2" d="M664.62,992.59c18.05,0,35.61-5.07,50.8-14.66l-2.56-4.05c-14.42,9.11-31.1,13.92-48.24,13.92-18.35,0-36.01-5.46-51.08-15.79l-2.71,3.95c15.87,10.88,34.48,16.63,53.79,16.63Z"/>
            <path class="cls-3" d="M626.26,955.8"/>
          </g>
          <g>
            <g>
              <path class="cls-2" d="M166.2,802.95c1.15.11,2.32.25,3.47.4l-3.22,23.94c-.86-.13-1.72-.24-2.59-.33l2.33-24.01Z"/>
              <path class="cls-2" d="M83.17,899.74c-.01-1.38.02-2.75.09-4.12l-12.17-.6c.05-1.02.12-2.05.21-3.09v-.15s12.14,1.07,12.14,1.07c.13-1.48.3-2.95.52-4.41l-22.92-3.37c.17-1.15.36-2.3.57-3.43l22.79,4.19c.26-1.4.56-2.79.9-4.17l-11.84-2.89c.24-.99.51-2,.79-2.99l11.74,3.32c.41-1.42.86-2.83,1.35-4.21l-21.89-7.68c.38-1.09.79-2.19,1.21-3.26l21.61,8.46c.52-1.32,1.09-2.63,1.69-3.92l-11.13-5.12c.43-.93.88-1.86,1.34-2.78l10.95,5.53c.67-1.31,1.38-2.6,2.14-3.88l-20.1-11.73c.58-.99,1.19-1.99,1.81-2.97l19.68,12.45c.77-1.19,1.57-2.36,2.4-3.51l-10.03-7.19c.59-.83,1.21-1.66,1.84-2.47l9.78,7.57c.91-1.16,1.85-2.29,2.84-3.4l-17.61-15.38c.76-.87,1.54-1.73,2.33-2.58l17.07,16.02c.23-.25.47-.49.7-.73.76-.77,1.53-1.52,2.32-2.26l-8.57-9.04c.74-.7,1.51-1.4,2.28-2.08l8.25,9.35c1.12-.97,2.26-1.9,3.42-2.8l-14.48-18.5c.91-.71,1.85-1.42,2.79-2.1l13.8,19.04c1.15-.82,2.33-1.61,3.53-2.36l-6.78-10.58c.86-.55,1.75-1.1,2.63-1.62l6.4,10.84c1.28-.74,2.57-1.43,3.89-2.09l-10.76-21.03c1.03-.53,2.09-1.05,3.14-1.53l10,21.43c1.29-.58,2.59-1.12,3.91-1.63l-4.71-11.81c.95-.38,1.93-.75,2.9-1.09l4.28,12c1.39-.48,2.79-.91,4.21-1.3l-6.6-22.85c1.11-.32,2.25-.63,3.37-.91l5.78,23.1c1.37-.32,2.75-.61,4.14-.85l-2.4-12.67c1.01-.19,2.03-.37,3.04-.52l1.95,12.78c1.45-.2,2.9-.36,4.37-.48l-2.17-23.86c1.15-.1,2.32-.19,3.47-.25l1.31,23.95c.83-.04,1.65-.06,2.48-.07.24,0,.47,0,.71,0,.34,0,.68,0,1.02.01l.05-13.06c1.02,0,2.06.03,3.08.07l-.51,13.07c1.47.07,2.93.19,4.38.35l2.59.33c1.39.2,2.78.45,4.14.73l2.51-12.97c1,.19,2.02.41,3.02.64l-2.99,12.91c1.42.35,2.82.73,4.21,1.16l6.91-23.29c1.11.33,2.23.68,3.33,1.05l-7.77,23.06c1.33.46,2.63.96,3.92,1.5l5-12.43c.95.38,1.91.79,2.85,1.21l-5.47,12.27c1.32.61,2.62,1.25,3.9,1.94l11.29-21.7c1.02.53,2.05,1.09,3.06,1.66l-12.09,21.3c1.21.7,2.39,1.44,3.56,2.21l7.36-11.38c.86.55,1.72,1.13,2.56,1.72l-7.78,11.13c1.18.84,2.34,1.72,3.46,2.63l15.28-19.28c.9.71,1.8,1.46,2.68,2.21l-15.98,18.74c1.05.91,2.08,1.86,3.07,2.83l9.47-9.88c.74.71,1.48,1.44,2.19,2.17l-9.83,9.55c1,1.05,1.97,2.13,2.91,3.23l18.72-16.14c.76.88,1.5,1.78,2.23,2.68l-19.31,15.47c.86,1.09,1.69,2.21,2.49,3.34l11.24-7.97c.59.84,1.18,1.69,1.74,2.55l-11.52,7.58c.79,1.21,1.54,2.45,2.25,3.72l21.51-12.36c.57,1,1.14,2.03,1.69,3.06l-21.95,11.58c.64,1.23,1.24,2.48,1.81,3.75l12.6-5.74c.43.94.84,1.89,1.23,2.83l-12.81,5.28c.54,1.33,1.05,2.69,1.51,4.06l23.52-8.05c.37,1.1.73,2.21,1.07,3.32l-23.8,7.2c.4,1.33.76,2.67,1.08,4.02l13.51-3.25c.24,1,.47,2.02.67,3.02l-13.63,2.76c.28,1.41.53,2.83.72,4.26l24.64-3.43c.16,1.15.3,2.31.42,3.45l-24.76,2.55c.14,1.37.24,2.76.3,4.16l13.9-.62c.04.99.07,2,.08,2.99v.09s-13.91.12-13.91.12c0,0,0,0,0,.01.01,1.45-.02,2.89-.09,4.33l24.86,1.24c-.06,1.15-.14,2.32-.23,3.46l-24.79-2.12c-.12,1.39-.27,2.77-.47,4.15l13.74,1.99c-.15,1.01-.31,2.04-.5,3.05l-13.65-2.48c-.25,1.42-.55,2.84-.88,4.23l24.14,5.9c-.27,1.12-.57,2.26-.89,3.38l-23.9-6.78c-.37,1.34-.79,2.67-1.24,3.99l13.07,4.54c-.34.97-.7,1.95-1.07,2.9l-12.89-5.01c-.52,1.35-1.07,2.68-1.67,3.99l22.51,10.37c-.48,1.05-.99,2.11-1.51,3.14l-22.11-11.18c-.62,1.25-1.28,2.48-1.98,3.69l11.92,6.91c-.51.88-1.05,1.77-1.6,2.64l-11.64-7.33c-.76,1.22-1.56,2.42-2.4,3.6l20.09,14.4c-.67.94-1.37,1.88-2.08,2.8l-19.54-15.11c-.84,1.11-1.73,2.19-2.64,3.25l10.33,8.99c-.67.77-1.37,1.54-2.06,2.29l-9.99-9.34c-.53.58-1.07,1.15-1.62,1.71-.46.47-.94.94-1.41,1.4l16.95,17.85c-.84.8-1.7,1.59-2.57,2.35l-15.29-17.32h0s-3.1-3.51-3.1-3.51c1.07-.97,2.12-1.97,3.14-3.01,13-13.25,20.06-30.77,19.88-49.33-.37-38.09-31.47-68.82-69.47-68.82-.23,0-.45,0-.68,0-18.56.18-35.94,7.57-48.94,20.82-13,13.25-20.06,30.77-19.88,49.33.18,18.56,7.57,35.94,20.82,48.94.36.35.71.69,1.08,1.03l-2.19,2.28s0,0,0,0l-16.23,16.94c-.83-.8-1.66-1.62-2.47-2.45l16.81-16.34c-1-1.01-1.97-2.05-2.91-3.12l-9.39,8.13c-.67-.77-1.33-1.57-1.98-2.37l9.67-7.77c-.93-1.14-1.83-2.3-2.69-3.49l-19.03,13.53c-.67-.94-1.33-1.91-1.97-2.88l19.5-12.82c-.79-1.18-1.55-2.39-2.27-3.62l-10.67,6.16c-.51-.89-1.02-1.8-1.5-2.7l10.87-5.76c-.7-1.29-1.36-2.61-1.98-3.95l-21.17,9.63c-.48-1.06-.95-2.13-1.39-3.2l21.5-8.86c-.55-1.31-1.06-2.64-1.53-3.99l-11.57,4c-.34-.97-.66-1.96-.96-2.94l11.7-3.58c-.43-1.4-.83-2.82-1.18-4.26l-22.56,5.41c-.27-1.12-.52-2.27-.75-3.41l22.73-4.58c-.28-1.39-.53-2.8-.73-4.22l-12.08,1.71c-.14-1.02-.27-2.05-.38-3.06l12.13-1.28c-.16-1.46-.27-2.93-.33-4.41l-23.14,1.04c-.05-1.15-.08-2.32-.09-3.47v-.16s23.16-.22,23.16-.22Z"/>
            </g>
            <path class="cls-2" d="M155.8,970.63c13.98,0,27.56-3.97,39.28-11.48l-2.59-4.03c-10.94,7.02-23.63,10.72-36.69,10.72s-26.22-3.85-37.31-11.12l-2.63,4.01c11.87,7.79,25.68,11.91,39.94,11.91Z"/>
            <path class="cls-2" d="M155.22,982.22c16.35,0,32.2-4.71,45.82-13.61l-2.18-3.34c-12.98,8.48-28.07,12.96-43.64,12.96s-31.22-4.65-44.36-13.44l-2.22,3.32c13.8,9.23,29.91,14.11,46.58,14.11Z"/>
            <path class="cls-2" d="M156.25,992.59c18.05,0,35.61-5.07,50.8-14.66l-2.56-4.05c-14.42,9.11-31.1,13.92-48.24,13.92-18.35,0-36.01-5.46-51.08-15.79l-2.71,3.95c15.87,10.88,34.48,16.63,53.79,16.63Z"/>
            <path class="cls-3" d="M117.89,955.8"/>
          </g>
          <path class="cls-2" d="M833.65,853.85c.73-1.45,2.07-2.51,3.66-2.86,10.95-2.41,19.15-12.17,19.15-23.84v-.03c0-1.66.75-3.24,2.03-4.3,3.17-2.6,6.5-5,9.99-7.18,1.42-.89,3.29-.34,4.02,1.17l13.62,28.3c.6,1.25.2,2.76-.95,3.54-15.1,10.36-25.17,27.52-25.78,47.06-1.07,34.15,26.42,61.93,60.58,61.21,31.45-.66,56.87-25.79,58.01-57.12,1.26-34.53-27.38-62.97-61.9-61.47-4.81.21-9.47.99-13.92,2.28-1.32.38-2.72-.24-3.32-1.48l-13.72-28.5c-.72-1.5,0-3.3,1.56-3.86,4.97-1.8,10.13-3.19,15.45-4.15,0,0,0,0,0,0,4.4,4.3,10.42,6.95,17.06,6.95,5.6,0,10.76-1.89,14.88-5.06,1.53-1.18,3.48-1.67,5.37-1.26,15.13,3.26,28.92,10.09,40.46,19.57,1.28,1.05,2.03,2.63,2.02,4.29v.03c0,11.53,7.99,21.19,18.74,23.75,1.88.45,3.47,1.73,4.33,3.47,6.35,12.8,9.92,27.23,9.92,42.49,0,.19,0,.39,0,.58-.01,1.98-.92,3.83-2.45,5.08-5.5,4.48-9.02,11.3-9.02,18.95,0,3.92.93,7.63,2.57,10.91.74,1.47.76,3.21.07,4.7-6.44,13.9-16.13,26-28.08,35.32-1.32,1.03-3.04,1.37-4.67.98-1.86-.45-3.8-.69-5.79-.69-9.85,0-18.33,5.83-22.19,14.23-.7,1.51-2.04,2.64-3.66,3.03-7.22,1.74-14.76,2.66-22.52,2.66s-15.3-.92-22.52-2.66c-1.62-.39-2.96-1.51-3.66-3.03-3.86-8.4-12.35-14.23-22.19-14.23-2,0-3.94.24-5.79.69-1.63.4-3.35.05-4.67-.98-11.95-9.32-21.63-21.42-28.08-35.32-.69-1.5-.67-3.23.07-4.7,1.64-3.28,2.57-6.99,2.57-10.91,0-7.8-3.66-14.74-9.35-19.21-1.3-1.02-2.1-2.56-2.12-4.22,0-.39,0-.78,0-1.17,0-15.47,3.67-30.07,10.18-43Z"/>
          <path class="cls-2" d="M325.28,853.85c.73-1.45,2.07-2.51,3.66-2.86,10.95-2.41,19.15-12.17,19.15-23.84v-.03c0-1.66.75-3.24,2.03-4.3,3.17-2.6,6.5-5,9.99-7.18,1.42-.89,3.29-.34,4.02,1.17l13.62,28.3c.6,1.25.2,2.76-.95,3.54-15.1,10.36-25.17,27.52-25.78,47.06-1.07,34.15,26.42,61.93,60.58,61.21,31.45-.66,56.87-25.79,58.01-57.12,1.26-34.53-27.38-62.97-61.9-61.47-4.81.21-9.47.99-13.92,2.28-1.32.38-2.72-.24-3.32-1.48l-13.72-28.5c-.72-1.5,0-3.3,1.56-3.86,4.97-1.8,10.13-3.19,15.45-4.15,0,0,0,0,0,0,4.4,4.3,10.42,6.95,17.06,6.95,5.6,0,10.76-1.89,14.88-5.06,1.53-1.18,3.48-1.67,5.37-1.26,15.13,3.26,28.92,10.09,40.46,19.57,1.28,1.05,2.03,2.63,2.02,4.29v.03c0,11.53,7.99,21.19,18.74,23.75,1.88.45,3.47,1.73,4.33,3.47,6.35,12.8,9.92,27.23,9.92,42.49,0,.19,0,.39,0,.58-.01,1.98-.92,3.83-2.45,5.08-5.5,4.48-9.02,11.3-9.02,18.95,0,3.92.93,7.63,2.57,10.91.74,1.47.76,3.21.07,4.7-6.44,13.9-16.13,26-28.08,35.32-1.32,1.03-3.04,1.37-4.67.98-1.86-.45-3.8-.69-5.79-.69-9.85,0-18.33,5.83-22.19,14.23-.7,1.51-2.04,2.64-3.66,3.03-7.22,1.74-14.76,2.66-22.52,2.66s-15.3-.92-22.52-2.66c-1.62-.39-2.96-1.51-3.66-3.03-3.86-8.4-12.35-14.23-22.19-14.23-2,0-3.94.24-5.79.69-1.63.4-3.35.05-4.67-.98-11.95-9.32-21.63-21.42-28.08-35.32-.69-1.5-.67-3.23.07-4.7,1.64-3.28,2.57-6.99,2.57-10.91,0-7.8-3.66-14.74-9.35-19.21-1.3-1.02-2.1-2.56-2.12-4.22,0-.39,0-.78,0-1.17,0-15.47,3.67-30.07,10.18-43Z"/>
        </g>
      </g>
    </pattern>
  </defs>
  <rect class="cls-5" x="0" y="0" width="3392.47" height="2160"/>
  <rect class="cls-5" x="185.71" y="157.3" width="3005.27" height="1821.82"/>
</svg>