<?xml version="1.0" encoding="UTF-8"?>
<svg id="Layer_1" data-name="Layer 1" xmlns="http://www.w3.org/2000/svg" viewBox="0 0 4388.83 1080">
  <defs>
    <style>
      .cls-1 {
        fill: #212f45;
      }

      .cls-2 {
        fill: #ffb36d;
      }
    </style>
  </defs>
  <path class="cls-2" d="M858.74,375.39c-2.72-5.41-7.71-9.34-13.63-10.64-40.76-8.95-71.26-45.26-71.26-88.7v-.09c0-6.19-2.78-12.06-7.57-15.99-11.78-9.67-24.19-18.59-37.16-26.71-5.27-3.3-12.25-1.25-14.95,4.35l-50.69,105.27c-2.25,4.67-.73,10.25,3.54,13.18,56.18,38.53,93.65,102.38,95.93,175.1,3.99,127.06-98.28,230.41-225.37,227.73-116.99-2.47-211.59-95.96-215.83-212.5-4.68-128.45,101.86-234.26,230.28-228.7,17.9.77,35.24,3.68,51.79,8.48,4.91,1.42,10.13-.89,12.35-5.5l51.05-106.02c2.68-5.57-.01-12.26-5.82-14.36-18.49-6.68-37.69-11.87-57.46-15.43-.01,0-.02,0-.03,0-16.37,16-38.76,25.86-63.46,25.86-20.85,0-40.05-7.03-55.37-18.84-5.69-4.38-12.96-6.2-19.97-4.69-56.27,12.12-107.6,37.54-150.54,72.8-4.78,3.92-7.54,9.78-7.53,15.96v.09c0,42.9-29.74,78.85-69.73,88.36-7.01,1.67-12.9,6.44-16.11,12.89-23.63,47.63-36.92,101.31-36.92,158.09,0,.72,0,1.43,0,2.15.05,7.35,3.42,14.25,9.12,18.89,20.47,16.65,33.55,42.04,33.55,70.48,0,14.59-3.44,28.38-9.56,40.59-2.74,5.48-2.84,11.93-.26,17.49,23.97,51.72,59.99,96.73,104.46,131.41,4.91,3.83,11.32,5.11,17.37,3.63,6.91-1.68,14.13-2.58,21.55-2.58,36.64,0,68.21,21.7,82.57,52.94,2.59,5.63,7.58,9.8,13.6,11.26,26.86,6.48,54.92,9.91,83.77,9.91s56.9-3.43,83.77-9.91c6.02-1.45,11.02-5.63,13.6-11.26,14.36-31.25,45.93-52.94,82.57-52.94,7.43,0,14.64.89,21.55,2.58,6.05,1.47,12.46.2,17.37-3.63,44.47-34.68,80.48-79.68,104.46-131.41,2.58-5.56,2.48-12.01-.26-17.49-6.12-12.22-9.56-26-9.56-40.59,0-29.01,13.6-54.83,34.77-71.46,4.85-3.81,7.8-9.54,7.88-15.7.02-1.45.03-2.91.03-4.36,0-57.54-13.65-111.89-37.87-159.99Z"/>
  <g>
    <path class="cls-1" d="M1076.22,432.38c0-48.1,25.58-73.68,73.68-73.68h57.31c48.1,0,73.68,25.58,73.68,73.68v210.81c0,48.1-25.58,73.68-73.68,73.68h-57.31c-48.1,0-73.68-25.58-73.68-73.68v-210.81ZM1195.95,650.87c13.3,0,20.47-6.65,20.47-20.47v-185.23c0-13.3-7.16-20.47-20.47-20.47h-32.75c-13.3,0-20.47,7.17-20.47,20.47v185.23c0,13.82,7.17,20.47,20.47,20.47h32.75Z"/>
    <path class="cls-1" d="M1332.07,366.89c0-5.12,3.07-8.19,8.19-8.19h122.8c48.1,0,73.68,25.58,73.68,73.68v100.29c0,47.59-25.58,73.17-73.68,73.68l-64.47.51v102.34c0,5.12-2.56,8.18-8.18,8.18l-50.14-.51c-5.12,0-8.19-3.07-8.19-8.19v-341.8ZM1449.75,540.35c13.82,0,20.47-7.68,20.47-20.47v-74.71c0-13.3-6.65-20.47-20.47-20.47l-51.17.51v115.64l51.17-.51Z"/>
    <path class="cls-1" d="M1792.07,418.06c0,5.12-2.05,8.7-8.18,8.7h-126.39v78.8h96.2c5.12,0,8.19,3.07,8.19,8.7v50.66c0,5.63-3.07,8.7-8.19,8.7h-96.2v75.73h126.39c6.14,0,8.18,2.56,8.18,8.19v51.16c0,5.12-2.05,8.19-8.18,8.19h-188.3c-4.6,0-7.67-3.07-7.67-8.19v-341.8c0-5.12,3.07-8.19,7.67-8.19h188.3c6.14,0,8.18,3.07,8.18,8.19v51.17Z"/>
    <path class="cls-1" d="M2053.54,358.7c5.12,0,8.19,3.07,8.19,8.19v341.8c0,5.12-3.07,8.19-8.19,8.19h-40.42c-4.6,0-7.16-2.05-9.21-6.65l-96.2-195.46v193.92c0,5.12-2.56,8.19-8.19,8.19h-48.09c-5.12,0-8.19-3.07-8.19-8.19v-341.8c0-5.12,3.07-8.19,8.19-8.19h40.42c4.61,0,7.16,2.05,9.21,6.65l96.2,195.46v-193.92c0-5.12,2.56-8.19,8.19-8.19h48.1Z"/>
    <path class="cls-1" d="M2375.9,366.89c0-5.12,3.07-8.19,8.19-8.19h52.7c6.14,0,8.7,3.07,8.7,8.19v341.8c0,5.12-2.56,8.19-8.7,8.19h-52.7c-5.12,0-8.19-3.07-8.19-8.19v-136.11h-65.49v136.11c0,5.12-3.07,8.19-8.19,8.19h-52.7c-6.14,0-8.7-3.07-8.7-8.19v-341.8c0-5.12,2.56-8.19,8.7-8.19h52.7c5.12,0,8.19,3.07,8.19,8.19v138.15h65.49v-138.15Z"/>
    <path class="cls-1" d="M2678.31,716.88c-4.6,0-7.16-2.56-8.19-7.16l-16.37-64.47h-96.2l-15.86,64.47c-1.03,4.61-3.58,7.16-8.19,7.16h-50.14c-5.63,0-8.19-3.07-6.65-8.7l84.94-342.31c1.03-5.12,4.1-7.16,8.7-7.16h71.12c4.6,0,7.67,2.05,8.7,7.16l84.94,342.31c1.54,5.63-1.02,8.7-7.16,8.7h-49.63ZM2605.65,446.71l-32.24,139.18h64.47l-32.24-139.18Z"/>
    <path class="cls-1" d="M3047.74,358.7c6.65,0,10.23,3.58,10.23,10.23v337.71c0,6.65-3.58,10.23-10.23,10.23h-47.58c-6.65,0-10.23-3.58-10.23-10.23v-201.09h-3.58l-48.1,202.63c-1.54,5.63-5.12,8.7-11.26,8.7h-30.19c-6.14,0-9.72-3.07-11.26-8.7l-48.1-202.63h-3.58v201.09c0,6.65-3.58,10.23-10.23,10.23h-47.07c-6.65,0-10.23-3.58-10.23-10.23v-337.71c0-6.65,3.58-10.23,10.23-10.23h67.54c6.14,0,9.72,3.07,11.26,8.7l56.79,228.21,56.8-228.21c1.54-5.63,5.12-8.7,11.26-8.7h67.54Z"/>
    <path class="cls-1" d="M3237.07,366.89c0-5.12,3.07-8.19,8.19-8.19h122.8c48.1,0,73.68,25.58,73.68,73.68v100.29c0,47.59-25.58,73.17-73.68,73.68l-64.47.51v102.34c0,5.12-2.56,8.18-8.18,8.18l-50.14-.51c-5.12,0-8.19-3.07-8.19-8.19v-341.8ZM3354.76,540.35c13.82,0,20.47-7.68,20.47-20.47v-74.71c0-13.3-6.65-20.47-20.47-20.47l-51.17.51v115.64l51.17-.51Z"/>
    <path class="cls-1" d="M3697.59,535.23c0,29.68-9.72,50.65-28.66,62.42l26.61,110.01c1.54,6.14-1.53,9.21-7.16,9.21h-50.14c-5.12,0-7.67-2.56-8.7-7.16l-24.56-100.8h-45.54v99.78c0,5.12-3.07,8.19-8.18,8.19h-50.14c-5.12,0-8.19-3.07-8.19-8.19v-341.8c0-5.12,3.07-8.19,8.19-8.19h122.8c48.1,0,73.68,25.58,73.68,73.68v102.85ZM3610.6,542.9c13.3,0,20.47-7.16,20.47-20.47v-77.26c0-13.3-7.16-20.47-20.47-20.47h-51.17v118.2h51.17Z"/>
    <path class="cls-1" d="M3952.92,418.06c0,5.12-2.05,8.7-8.18,8.7h-126.39v78.8h96.2c5.12,0,8.19,3.07,8.19,8.7v50.66c0,5.63-3.07,8.7-8.19,8.7h-96.2v75.73h126.39c6.14,0,8.18,2.56,8.18,8.19v51.16c0,5.12-2.05,8.19-8.18,8.19h-188.3c-4.6,0-7.67-3.07-7.67-8.19v-341.8c0-5.12,3.07-8.19,7.67-8.19h188.3c6.14,0,8.18,3.07,8.18,8.19v51.17Z"/>
    <path class="cls-1" d="M4004.09,366.89c0-5.12,3.07-8.19,8.19-8.19h122.8c48.1,0,73.68,25.58,73.68,73.68v100.29c0,47.59-25.58,73.17-73.68,73.68l-64.47.51v102.34c0,5.12-2.56,8.18-8.18,8.18l-50.14-.51c-5.12,0-8.19-3.07-8.19-8.19v-341.8ZM4121.77,540.35c13.82,0,20.47-7.68,20.47-20.47v-74.71c0-13.3-6.65-20.47-20.47-20.47l-51.17.51v115.64l51.17-.51Z"/>
  </g>
</svg>