<?xml version="1.0" encoding="UTF-8"?>
<svg id="Layer_1" data-name="Layer 1" xmlns="http://www.w3.org/2000/svg" xmlns:xlink="http://www.w3.org/1999/xlink" viewBox="0 0 500 500">
  <defs>
    <style>
      .cls-1 {
        fill: url(#linear-gradient);
      }
    </style>
    <linearGradient id="linear-gradient" x1="58.23" y1="452.48" x2="460.3" y2="26.77" gradientUnits="userSpaceOnUse">
      <stop offset="0" stop-color="#ffb36d" stop-opacity="0"/>
      <stop offset=".16" stop-color="#ffb36d" stop-opacity=".24"/>
      <stop offset=".32" stop-color="#ffb36d" stop-opacity=".47"/>
      <stop offset=".49" stop-color="#ffb36d" stop-opacity=".66"/>
      <stop offset=".64" stop-color="#ffb36d" stop-opacity=".81"/>
      <stop offset=".78" stop-color="#ffb36d" stop-opacity=".91"/>
      <stop offset=".9" stop-color="#ffb36d" stop-opacity=".98"/>
      <stop offset="1" stop-color="#ffb36d"/>
    </linearGradient>
  </defs>
  <path class="cls-1" d="M459.62,142.78c-1.79-3.56-5.08-6.15-8.97-7.01-26.84-5.89-46.93-29.81-46.93-58.42v-.06c0-4.08-1.83-7.94-4.98-10.53-7.76-6.37-15.93-12.24-24.47-17.59-3.47-2.17-8.07-.83-9.84,2.86l-33.38,69.33c-1.48,3.07-.48,6.75,2.33,8.68,37,25.38,61.67,67.42,63.17,115.31,2.62,83.68-64.72,151.73-148.42,149.97-77.04-1.63-139.34-63.19-142.13-139.94-3.08-84.59,67.08-154.27,151.65-150.61,11.79.51,23.21,2.43,34.1,5.58,3.23.94,6.67-.59,8.13-3.62l33.62-69.82c1.76-3.67,0-8.07-3.83-9.46-12.18-4.4-24.82-7.82-37.84-10.16,0,0-.02,0-.02,0-10.78,10.53-25.53,17.03-41.79,17.03-13.73,0-26.37-4.63-36.47-12.4-3.74-2.88-8.53-4.09-13.15-3.09-37.06,7.98-70.86,24.72-99.14,47.94-3.14,2.58-4.96,6.44-4.96,10.51v.06c0,28.25-19.59,51.92-45.92,58.19-4.62,1.1-8.5,4.24-10.61,8.49-15.56,31.37-24.31,66.72-24.31,104.11,0,.47,0,.94,0,1.42.03,4.84,2.25,9.39,6.01,12.44,13.48,10.97,22.09,27.68,22.09,46.42,0,9.61-2.27,18.69-6.29,26.73-1.81,3.61-1.87,7.85-.17,11.52,15.79,34.06,39.51,63.7,68.79,86.54,3.24,2.52,7.45,3.36,11.44,2.39,4.55-1.11,9.3-1.7,14.19-1.7,24.13,0,44.92,14.29,54.38,34.86,1.7,3.71,4.99,6.46,8.96,7.41,17.69,4.26,36.16,6.53,55.16,6.53s37.47-2.26,55.16-6.53c3.97-.96,7.25-3.7,8.96-7.41,9.46-20.58,30.25-34.86,54.38-34.86,4.89,0,9.64.59,14.19,1.7,3.99.97,8.2.13,11.44-2.39,29.28-22.84,53-52.47,68.79-86.54,1.7-3.66,1.64-7.91-.17-11.52-4.03-8.04-6.29-17.12-6.29-26.73,0-19.1,8.96-36.11,22.9-47.06,3.19-2.51,5.14-6.28,5.19-10.34.01-.96.02-1.91.02-2.87,0-37.89-8.99-73.68-24.94-105.36Z"/>
</svg>