<?xml version="1.0" encoding="UTF-8"?>
<svg id="Layer_1" data-name="Layer 1" xmlns="http://www.w3.org/2000/svg" viewBox="0 0 2324.25 1080">
  <defs>
    <style>
      .cls-1 {
        fill: #fff;
      }
    </style>
  </defs>
  <path class="cls-1" d="M1374.02,246.61c-1.81-3.6-5.13-6.22-9.07-7.08-27.12-5.95-47.42-30.12-47.42-59.03v-.06c0-4.12-1.85-8.02-5.03-10.64-7.84-6.43-16.1-12.37-24.73-17.77-3.51-2.2-8.15-.83-9.95,2.89l-33.73,70.05c-1.49,3.1-.48,6.82,2.36,8.77,37.39,25.64,62.31,68.12,63.83,116.51,2.65,84.55-65.39,153.32-149.97,151.53-77.85-1.64-140.79-63.85-143.62-141.4-3.11-85.47,67.78-155.88,153.23-152.18,11.91.52,23.45,2.45,34.46,5.64,3.27.95,6.74-.59,8.22-3.66l33.97-70.55c1.78-3.7,0-8.16-3.87-9.55-12.3-4.44-25.08-7.9-38.24-10.27,0,0-.02,0-.02,0-10.89,10.64-25.79,17.21-42.23,17.21-13.87,0-26.65-4.68-36.85-12.53-3.78-2.91-8.62-4.13-13.29-3.12-37.44,8.06-71.6,24.98-100.17,48.44-3.18,2.61-5.02,6.51-5.01,10.62v.06c0,28.55-19.79,52.46-46.4,58.79-4.66,1.11-8.59,4.29-10.72,8.58-15.73,31.7-24.57,67.41-24.57,105.19,0,.48,0,.95,0,1.43.03,4.89,2.28,9.48,6.07,12.57,13.62,11.08,22.32,27.97,22.32,46.9,0,9.71-2.29,18.88-6.36,27.01-1.83,3.65-1.89,7.94-.17,11.64,15.95,34.42,39.92,64.36,69.51,87.44,3.27,2.55,7.53,3.4,11.56,2.42,4.6-1.12,9.4-1.71,14.34-1.71,24.38,0,45.39,14.44,54.94,35.23,1.72,3.75,5.04,6.52,9.05,7.49,17.88,4.31,36.54,6.59,55.74,6.59s37.86-2.28,55.74-6.59c4.01-.97,7.33-3.74,9.05-7.49,9.55-20.79,30.56-35.23,54.94-35.23,4.94,0,9.74.59,14.34,1.71,4.03.98,8.29.13,11.56-2.42,29.59-23.08,53.56-53.02,69.51-87.44,1.72-3.7,1.65-7.99-.17-11.64-4.07-8.13-6.36-17.3-6.36-27.01,0-19.3,9.05-36.49,23.13-47.55,3.22-2.53,5.19-6.35,5.24-10.45.01-.97.02-1.93.02-2.9,0-38.29-9.08-74.45-25.2-106.46Z"/>
  <g>
    <path class="cls-1" d="M120,768.49c0-32,17.02-49.03,49.03-49.03h38.13c32,0,49.03,17.02,49.03,49.03v140.28c0,32-17.02,49.03-49.03,49.03h-38.13c-32,0-49.03-17.02-49.03-49.03v-140.28ZM199.67,913.87c8.85,0,13.62-4.43,13.62-13.62v-123.25c0-8.85-4.77-13.62-13.62-13.62h-21.79c-8.85,0-13.62,4.77-13.62,13.62v123.25c0,9.19,4.77,13.62,13.62,13.62h21.79Z"/>
    <path class="cls-1" d="M290.25,724.91c0-3.4,2.04-5.45,5.45-5.45h81.71c32,0,49.03,17.02,49.03,49.03v66.73c0,31.67-17.02,48.69-49.03,49.03l-42.9.34v68.1c0,3.4-1.7,5.45-5.45,5.45l-33.37-.34c-3.4,0-5.45-2.04-5.45-5.45v-227.44ZM368.56,840.33c9.19,0,13.62-5.11,13.62-13.62v-49.71c0-8.85-4.43-13.62-13.62-13.62l-34.05.34v76.95l34.05-.34Z"/>
    <path class="cls-1" d="M596.33,758.95c0,3.4-1.36,5.79-5.45,5.79h-84.1v52.43h64.01c3.4,0,5.45,2.04,5.45,5.79v33.71c0,3.74-2.04,5.79-5.45,5.79h-64.01v50.39h84.1c4.08,0,5.45,1.7,5.45,5.45v34.05c0,3.4-1.36,5.45-5.45,5.45h-125.3c-3.06,0-5.11-2.04-5.11-5.45v-227.44c0-3.4,2.04-5.45,5.11-5.45h125.3c4.08,0,5.45,2.04,5.45,5.45v34.05Z"/>
    <path class="cls-1" d="M770.32,719.46c3.4,0,5.45,2.04,5.45,5.45v227.44c0,3.4-2.04,5.45-5.45,5.45h-26.9c-3.06,0-4.77-1.36-6.13-4.43l-64.01-130.06v129.04c0,3.4-1.7,5.45-5.45,5.45h-32c-3.4,0-5.45-2.04-5.45-5.45v-227.44c0-3.4,2.04-5.45,5.45-5.45h26.9c3.07,0,4.77,1.36,6.13,4.43l64.01,130.06v-129.04c0-3.4,1.7-5.45,5.45-5.45h32Z"/>
    <path class="cls-1" d="M984.82,724.91c0-3.4,2.04-5.45,5.45-5.45h35.07c4.08,0,5.79,2.04,5.79,5.45v227.44c0,3.4-1.7,5.45-5.79,5.45h-35.07c-3.4,0-5.45-2.04-5.45-5.45v-90.57h-43.58v90.57c0,3.4-2.04,5.45-5.45,5.45h-35.07c-4.09,0-5.79-2.04-5.79-5.45v-227.44c0-3.4,1.7-5.45,5.79-5.45h35.07c3.4,0,5.45,2.04,5.45,5.45v91.93h43.58v-91.93Z"/>
    <path class="cls-1" d="M1186.05,957.79c-3.06,0-4.77-1.7-5.45-4.77l-10.89-42.9h-64.01l-10.55,42.9c-.68,3.07-2.38,4.77-5.45,4.77h-33.37c-3.74,0-5.45-2.04-4.43-5.79l56.52-227.78c.68-3.4,2.73-4.77,5.79-4.77h47.33c3.06,0,5.11,1.36,5.79,4.77l56.52,227.78c1.02,3.74-.68,5.79-4.77,5.79h-33.03ZM1137.7,778.02l-21.45,92.61h42.9l-21.45-92.61Z"/>
    <path class="cls-1" d="M1431.88,719.46c4.43,0,6.81,2.38,6.81,6.81v224.71c0,4.43-2.38,6.81-6.81,6.81h-31.66c-4.43,0-6.81-2.38-6.81-6.81v-133.81h-2.38l-32,134.83c-1.02,3.74-3.4,5.79-7.49,5.79h-20.09c-4.09,0-6.47-2.04-7.49-5.79l-32-134.83h-2.38v133.81c0,4.43-2.38,6.81-6.81,6.81h-31.32c-4.43,0-6.81-2.38-6.81-6.81v-224.71c0-4.43,2.38-6.81,6.81-6.81h44.94c4.09,0,6.47,2.04,7.49,5.79l37.79,151.85,37.79-151.85c1.02-3.74,3.4-5.79,7.49-5.79h44.94Z"/>
    <path class="cls-1" d="M1557.86,724.91c0-3.4,2.04-5.45,5.45-5.45h81.71c32,0,49.03,17.02,49.03,49.03v66.73c0,31.67-17.02,48.69-49.03,49.03l-42.9.34v68.1c0,3.4-1.7,5.45-5.45,5.45l-33.37-.34c-3.4,0-5.45-2.04-5.45-5.45v-227.44ZM1636.17,840.33c9.19,0,13.62-5.11,13.62-13.62v-49.71c0-8.85-4.43-13.62-13.62-13.62l-34.05.34v76.95l34.05-.34Z"/>
    <path class="cls-1" d="M1864.29,836.92c0,19.75-6.47,33.71-19.07,41.54l17.7,73.2c1.02,4.08-1.02,6.13-4.77,6.13h-33.37c-3.4,0-5.11-1.7-5.79-4.77l-16.34-67.08h-30.3v66.39c0,3.4-2.04,5.45-5.45,5.45h-33.37c-3.4,0-5.45-2.04-5.45-5.45v-227.44c0-3.4,2.04-5.45,5.45-5.45h81.71c32,0,49.03,17.02,49.03,49.03v68.44ZM1806.41,842.03c8.85,0,13.62-4.77,13.62-13.62v-51.41c0-8.85-4.77-13.62-13.62-13.62h-34.05v78.65h34.05Z"/>
    <path class="cls-1" d="M2034.19,758.95c0,3.4-1.36,5.79-5.45,5.79h-84.1v52.43h64.01c3.4,0,5.45,2.04,5.45,5.79v33.71c0,3.74-2.04,5.79-5.45,5.79h-64.01v50.39h84.1c4.08,0,5.45,1.7,5.45,5.45v34.05c0,3.4-1.36,5.45-5.45,5.45h-125.3c-3.06,0-5.11-2.04-5.11-5.45v-227.44c0-3.4,2.04-5.45,5.11-5.45h125.3c4.08,0,5.45,2.04,5.45,5.45v34.05Z"/>
    <path class="cls-1" d="M2068.24,724.91c0-3.4,2.04-5.45,5.45-5.45h81.71c32,0,49.03,17.02,49.03,49.03v66.73c0,31.67-17.02,48.69-49.03,49.03l-42.9.34v68.1c0,3.4-1.7,5.45-5.45,5.45l-33.37-.34c-3.4,0-5.45-2.04-5.45-5.45v-227.44ZM2146.54,840.33c9.19,0,13.62-5.11,13.62-13.62v-49.71c0-8.85-4.43-13.62-13.62-13.62l-34.05.34v76.95l34.05-.34Z"/>
  </g>
</svg>