<?xml version="1.0" encoding="UTF-8"?>
<svg id="Layer_1" data-name="Layer 1" xmlns="http://www.w3.org/2000/svg" viewBox="0 0 78.23 78.23">
  <defs>
    <style>
      .cls-1 {
        fill: #ffb36d;
      }
    </style>
  </defs>
  <path class="cls-1" d="M62.13,27.34c-.2-.39-.56-.68-.99-.77-2.95-.65-5.15-3.27-5.15-6.42h0c0-.45-.2-.88-.55-1.16-.85-.7-1.75-1.34-2.69-1.93-.38-.24-.89-.09-1.08.31l-3.67,7.61c-.16.34-.05.74.26.95,4.06,2.79,6.77,7.4,6.94,12.66.29,9.19-7.11,16.66-16.3,16.47-8.46-.18-15.3-6.94-15.61-15.37-.34-9.29,7.37-16.94,16.65-16.54,1.29.06,2.55.27,3.75.61.36.1.73-.06.89-.4l3.69-7.67c.19-.4,0-.89-.42-1.04-1.34-.48-2.73-.86-4.16-1.12,0,0,0,0,0,0-1.18,1.16-2.8,1.87-4.59,1.87-1.51,0-2.9-.51-4-1.36-.41-.32-.94-.45-1.44-.34-4.07.88-7.78,2.71-10.89,5.26-.35.28-.55.71-.54,1.15h0c0,3.11-2.15,5.71-5.04,6.4-.51.12-.93.47-1.16.93-1.71,3.44-2.67,7.33-2.67,11.43,0,.05,0,.1,0,.16,0,.53.25,1.03.66,1.37,1.48,1.2,2.43,3.04,2.43,5.1,0,1.06-.25,2.05-.69,2.94-.2.4-.21.86-.02,1.26,1.73,3.74,4.34,7,7.55,9.5.36.28.82.37,1.26.26.5-.12,1.02-.19,1.56-.19,2.65,0,4.93,1.57,5.97,3.83.19.41.55.71.98.81,1.94.47,3.97.72,6.06.72s4.12-.25,6.06-.72c.44-.11.8-.41.98-.81,1.04-2.26,3.32-3.83,5.97-3.83.54,0,1.06.06,1.56.19.44.11.9.01,1.26-.26,3.22-2.51,5.82-5.76,7.55-9.5.19-.4.18-.87-.02-1.26-.44-.88-.69-1.88-.69-2.94,0-2.1.98-3.97,2.51-5.17.35-.28.56-.69.57-1.14,0-.11,0-.21,0-.32,0-4.16-.99-8.09-2.74-11.57Z"/>
</svg>
